<?xml version="1.0" encoding="UTF-8" standalone="no"?>
<svg
   xmlns:dc="http://purl.org/dc/elements/1.1/"
   xmlns:cc="http://creativecommons.org/ns#"
   xmlns:rdf="http://www.w3.org/1999/02/22-rdf-syntax-ns#"
   xmlns:svg="http://www.w3.org/2000/svg"
   xmlns="http://www.w3.org/2000/svg"
   xmlns:xlink="http://www.w3.org/1999/xlink"
   xmlns:sodipodi="http://sodipodi.sourceforge.net/DTD/sodipodi-0.dtd"
   xmlns:inkscape="http://www.inkscape.org/namespaces/inkscape"
   id="a281da36-03ff-4df9-8bcc-0ac71230b2d7"
   data-name="Layer 1"
   width="1177.82"
   height="725.16"
   viewBox="0 0 1177.82 725.16"
   version="1.1"
   sodipodi:docname="undraw_printing_invoices_5r4r.svg"
   inkscape:version="0.92.3 (2405546, 2018-03-11)"
   inkscape:export-filename="/home/finch/Downloads/undraw_printing_invoices_5r4r.png"
   inkscape:export-xdpi="96"
   inkscape:export-ydpi="96">
  <metadata
     id="metadata233">
    <rdf:RDF>
      <cc:Work
         rdf:about="">
        <dc:format>image/svg+xml</dc:format>
        <dc:type
           rdf:resource="http://purl.org/dc/dcmitype/StillImage" />
        <dc:title>printing invoices</dc:title>
      </cc:Work>
    </rdf:RDF>
  </metadata>
  <sodipodi:namedview
     pagecolor="#ffffff"
     bordercolor="#666666"
     borderopacity="1"
     objecttolerance="10"
     gridtolerance="10"
     guidetolerance="10"
     inkscape:pageopacity="0"
     inkscape:pageshadow="2"
     inkscape:window-width="1619"
     inkscape:window-height="1023"
     id="namedview231"
     showgrid="false"
     inkscape:zoom="7.185015"
     inkscape:cx="569.36643"
     inkscape:cy="100.69721"
     inkscape:window-x="61"
     inkscape:window-y="27"
     inkscape:window-maximized="1"
     inkscape:current-layer="g948"
     showguides="false" />
  <defs
     id="defs10">
    <linearGradient
       id="a17f7adb-619f-4eca-9f9e-ffa615402df6"
       x1="316.9"
       y1="512.48"
       x2="316.9"
       y2="321.58"
       gradientUnits="userSpaceOnUse">
      <stop
         offset="0"
         stop-color="gray"
         stop-opacity="0.25"
         id="stop2" />
      <stop
         offset="0.54"
         stop-color="gray"
         stop-opacity="0.12"
         id="stop4" />
      <stop
         offset="1"
         stop-color="gray"
         stop-opacity="0.1"
         id="stop6" />
    </linearGradient>
    <linearGradient
       id="afa9d3b0-698e-4c8c-85f1-7e162fccf1ba"
       x1="552.73"
       y1="709.84"
       x2="622.29"
       y2="709.84"
       xlink:href="#a17f7adb-619f-4eca-9f9e-ffa615402df6"
       gradientTransform="translate(96.355844,-90.203571)" />
    <linearGradient
       inkscape:collect="always"
       xlink:href="#a17f7adb-619f-4eca-9f9e-ffa615402df6"
       id="linearGradient4807"
       x1="444.28125"
       y1="594.95349"
       x2="486.65625"
       y2="594.95349"
       gradientUnits="userSpaceOnUse"
       gradientTransform="translate(-5.3548036,2.0519829)" />
    <linearGradient
       inkscape:collect="always"
       xlink:href="#a17f7adb-619f-4eca-9f9e-ffa615402df6"
       id="linearGradient5116"
       gradientUnits="userSpaceOnUse"
       x1="316.9"
       y1="512.48"
       x2="316.9"
       y2="321.58"
       gradientTransform="translate(-11.09,-87.42)" />
    <linearGradient
       inkscape:collect="always"
       xlink:href="#a17f7adb-619f-4eca-9f9e-ffa615402df6"
       id="linearGradient5122"
       gradientUnits="userSpaceOnUse"
       x1="444.28125"
       y1="594.95349"
       x2="486.65625"
       y2="594.95349"
       gradientTransform="translate(-5.3548036,2.0519829)" />
  </defs>
  <title
     id="title12">printing invoices</title>
  <path
     style="display:inline;opacity:0.1;fill:#6c63ff"
     inkscape:connector-curvature="0"
     d="m 1177.82,465.31 a 241.36,241.36 0 0 1 -7.07,58.24 q -2.38,9.62 -5.53,18.86 a 224.65,224.65 0 0 1 -8.92,22.32 q -2.55,5.51 -5.39,10.82 a 145.59,145.59 0 0 1 -12.17,58.49 150.86,150.86 0 0 1 -73.18,75.4 154,154 0 0 1 -65.41,15 H 223.59 a 195.67,195.67 0 0 1 -98.42,-26.3 q -6.63,-3.84 -12.92,-8.18 A 195.41,195.41 0 0 1 86.68,668.88 190.28,190.28 0 0 1 58.57,634.01 185.86,185.86 0 0 1 29.98,534.78 c -18.95,-33.25 -30,-73.08 -30,-115.88 0,-54 17.56,-103.26 46.41,-140.55 a 197.6,197.6 0 0 1 19.71,-21.93 183.42,183.42 0 0 1 22.54,-18.45 173.94,173.94 0 0 1 20,-12 c 2.89,-1.48 5.79,-2.86 8.74,-4.15 2.59,-1.15 5.21,-2.22 7.86,-3.23 q 4.77,-1.82 9.66,-3.33 4.89,-1.51 9.65,-2.66 7,-1.71 14.24,-2.78 c 4,-0.59 8,-1 12,-1.32 q 4.77,-0.34 9.62,-0.4 h 1.75 c 3.56,0 7.1,0.14 10.61,0.38 0.37,-0.74 0.77,-1.49 1.14,-2.23 1.4,-2.66 2.85,-5.32 4.31,-7.93 v -0.07 c 0.25,-0.45 0.5,-0.9 0.76,-1.34 1.18,-2.13 2.41,-4.24 3.67,-6.33 0.58,-1 1.15,-1.94 1.74,-2.89 0.13,-0.23 0.26,-0.45 0.41,-0.68 0.6,-1 1.21,-2 1.83,-3 q 4.63,-7.39 9.63,-14.55 c 0.29,-0.41 0.56,-0.81 0.85,-1.21 0.52,-0.74 1,-1.47 1.58,-2.2 1.38,-1.93 2.8,-3.87 4.23,-5.78 1,-1.35 2,-2.7 3.08,-4 2.6,-3.36 5.27,-6.7 8,-10 2.73,-3.3 5.61,-6.62 8.52,-9.87 0.4,-0.45 0.8,-0.89 1.22,-1.34 l 4.27,-4.65 v 0 c 0.21,-0.22 0.39,-0.42 0.59,-0.62 v 0 c 0.51,-0.55 1,-1.1 1.55,-1.64 2.29,-2.42 4.64,-4.81 7,-7.17 a 381.2,381.2 0 0 1 38.44,-33.4 c 0.53,-0.42 1.07,-0.82 1.6,-1.22 2.54,-1.92 5.12,-3.81 7.7,-5.67 a 406.84,406.84 0 0 1 44.41,-27.7 c 1.06,-0.6 2.14,-1.17 3.23,-1.74 A 426.26,426.26 0 0 1 395.02,31.69 Q 406.88,27 419.16,22.93 c 5.42,-1.77 10.86,-3.46 16.37,-5 q 12.78,-3.67 25.88,-6.62 A 463.35,463.35 0 0 1 539.65,0.65 q 12,-0.63 24.27,-0.63 a 465,465 0 0 1 117,14.8 4.22,4.22 0 0 0 3.63,1.89 h 3.36 c 1.46,0.39 2.91,0.8 4.37,1.22 q 12.23,3.53 24.11,7.69 l 2,0.72 a 430.4,430.4 0 0 1 56.91,25 412.06,412.06 0 0 1 47.65,29.44 q 3.51,2.52 6.92,5.09 4.14,-2.67 8.42,-5.09 a 165.59,165.59 0 0 1 34.88,-14.86 159.1,159.1 0 0 1 78.24,-3.06 c 33.25,7.05 63.35,24.55 87.66,49.44 a 204.55,204.55 0 0 1 26.32,33.28 c 0.55,0.86 1.1,1.73 1.63,2.61 a 220,220 0 0 1 16.74,33.39 c 0.17,0.42 0.34,0.83 0.49,1.25 a 231.09,231.09 0 0 1 10.3,33.35 c 0.12,0.57 0.26,1.15 0.38,1.73 a 240.11,240.11 0 0 1 4.92,33.37 c 0,0.4 0,0.81 0.08,1.22 q 0.63,8.71 0.64,17.61 c 0,5.3 -0.18,10.56 -0.51,15.77 0,0.57 -0.08,1.17 -0.13,1.75 -0.09,1.52 -0.22,3 -0.35,4.53 a 189.7,189.7 0 0 1 21.38,20.16 q 4.37,4.77 8.46,9.91 a 210.16,210.16 0 0 1 21.8,33.37 c 16.88,31.98 26.6,69.52 26.6,109.71 z"
     id="path14" />
  <path
     style="opacity:0.1;fill:#6c63ff"
     inkscape:connector-curvature="0"
     d="m 1064.82,662.14 c 0,22.73 -23.56,44 -64.67,62.32 H 223.59 c -35.93,0 -69.58,-13 -98.42,-35.67 -7.25,-8.6 -11.07,-17.51 -11.07,-26.66 0,-24.16 26.64,-46.71 72.7,-65.77 v 0 l 1.3,-0.52 c 13,-5.33 27.53,-10.36 43.41,-15.09 0.4,-0.12 0.81,-0.23 1.21,-0.37 v 0 q 18.9,-5.55 40.21,-10.52 c 0.45,-0.1 0.89,-0.21 1.34,-0.29 5.48,-1.3 11.07,-2.51 16.78,-3.72 v 0 l 2.2,-0.46 c 41.55,-8.62 88.78,-15.46 140,-20.1 h 0.06 q 10.76,-1 21.75,-1.79 c 8.15,-0.65 16.4,-1.2 24.74,-1.71 6.37,-0.41 12.82,-0.76 19.29,-1.08 a 0.19,0.19 0 0 1 0.15,0 c 29.19,-1.47 59.35,-2.24 90.19,-2.24 76.26,0 148.34,4.68 212.21,13 a 0.52,0.52 0 0 1 0.18,0 c 9.82,1.28 19.46,2.63 28.86,4.07 2.69,0.42 5.37,0.84 8,1.27 q 15.91,2.57 31,5.43 v 0 c 118.3,22.49 195.14,58.88 195.14,99.9 z"
     id="path16" />
  <path
     style="fill:#6c63ff"
     inkscape:connector-curvature="0"
     d="m 871.5,243.28 c 0,0 -10.58,-4.29 -44.24,11.14 -33.66,15.43 -37.86,13.48 -46.57,11.16 -8.71,-2.32 -13.57,-2.92 -22.91,-15.81 0,0 -6.59,-35.71 -13,-41.25 -6.41,-5.54 -33.47,3.16 -33.47,3.16 0,0 -32.49,7.45 -38.68,-36 0,0 4.39,-32.72 -1.59,-42.76 0,0 12.08,5.2 32,-3.2 19.92,-8.4 35.87,9.05 35.87,9.05 0,0 5,13 4.5,20.76 -0.5,7.76 2.66,10.67 12.16,6.92 0,0 4.67,-6.64 -1.94,-17.62 -6.61,-10.98 -11.33,-19.15 -9.49,-27.67 1.84,-8.52 7.15,-20.35 24.2,-26.26 17.05,-5.91 40.2,-7 51.31,-11.67 11.11,-4.67 13.85,-7.65 13.85,-7.65 0,0 -6.84,6.85 9.27,35.9 16.11,29.05 5.84,41.65 5.84,41.65 0,0 -8.57,20.43 -46.41,18.77 0,0 -36.46,1.33 -16.58,16.79 0,0 12.73,-2.59 31.76,-8.64 19.03,-6.05 32.77,18.92 36.18,36.29 3.41,17.37 17.94,26.94 17.94,26.94 z"
     id="path18" />
  <path
     style="fill:#444053"
     inkscape:connector-curvature="0"
     d="m 822.49,97.58 0.2,-0.06 c 1.46,5.54 -14.83,27.82 -28.76,45.53 l -0.16,-0.13 c 19.64,-24.94 29.85,-41.05 28.72,-45.34 z"
     id="path20" />
  <path
     style="fill:#444053"
     inkscape:connector-curvature="0"
     d="m 794.05,142.58 0.09,0.22 c -11.13,14.14 -25.12,31 -36.32,43.53 -1.07,1.19 -2.13,2.44 -3.15,3.72 l -0.32,-0.26 c 1,-1.28 2.09,-2.54 3.16,-3.73 11.19,-12.48 25.4,-29.33 36.54,-43.48 z"
     id="path22" />
  <path
     style="fill:#444053"
     inkscape:connector-curvature="0"
     d="m 754.62,189.47 0.22,0.38 c -20.38,25.45 -21.73,65 -21.78,65.31 l -4.3,-5 c 0.05,-0.32 5.34,-35.06 25.86,-60.69 z"
     id="path24" />
  <path
     style="fill:none;stroke:#444053;stroke-miterlimit:10"
     inkscape:connector-curvature="0"
     d="m 847.91,229.48 c 0,0 -24,-12.5 -42.76,-8 -18.76,4.5 -60.95,-15.9 -60.95,-15.9 0,0 -17.9,-7.27 -21.5,-15.56 0,0 -12.29,-13 -13,-19.71 -0.71,-6.71 -12.66,-23.62 -20.46,-24.27"
     stroke-miterlimit="10"
     id="path26" />
  <path
     style="fill:none;stroke:#444053;stroke-miterlimit:10"
     inkscape:connector-curvature="0"
     d="m 844.38,241.51 c 0,0 -12.1,-8.16 -10.69,-17.66"
     stroke-miterlimit="10"
     id="path28" />
  <path
     style="fill:none;stroke:#444053;stroke-miterlimit:10"
     inkscape:connector-curvature="0"
     d="m 825.82,252.04 c 0,0 -17.31,-6.28 -19,-30.92"
     stroke-miterlimit="10"
     id="path30" />
  <path
     style="fill:none;stroke:#444053;stroke-miterlimit:10"
     inkscape:connector-curvature="0"
     d="m 797.91,258.42 c 0,0 -16.54,-13.72 -11.05,-37.7"
     stroke-miterlimit="10"
     id="path32" />
  <path
     style="fill:none;stroke:#444053;stroke-miterlimit:10"
     inkscape:connector-curvature="0"
     d="m 764.32,251.72 c 0,0 -11,-23.1 -1.21,-38.13"
     stroke-miterlimit="10"
     id="path34" />
  <path
     style="fill:none;stroke:#444053;stroke-miterlimit:10"
     inkscape:connector-curvature="0"
     d="m 848.14,214.25 c 0,0 -12.51,4 -9.83,10.56"
     stroke-miterlimit="10"
     id="path36" />
  <path
     style="fill:none;stroke:#444053;stroke-miterlimit:10"
     inkscape:connector-curvature="0"
     d="m 833.04,191.58 c 0,0 -16.75,5.31 -17.14,29"
     stroke-miterlimit="10"
     id="path38" />
  <path
     style="fill:none;stroke:#444053;stroke-miterlimit:10"
     inkscape:connector-curvature="0"
     d="m 809.68,186.06 c 0,0 -15.25,18.82 -14.13,35.92"
     stroke-miterlimit="10"
     id="path40" />
  <path
     style="fill:none;stroke:#444053;stroke-miterlimit:10"
     inkscape:connector-curvature="0"
     d="m 782.98,193.44 c 0,0 -15.14,14.48 -13.21,22.53"
     stroke-miterlimit="10"
     id="path42" />
  <path
     style="fill:none;stroke:#444053;stroke-miterlimit:10"
     inkscape:connector-curvature="0"
     d="m 773.85,188.33 c 0,0 -14.2,2.54 -16.19,-2.12"
     stroke-miterlimit="10"
     id="path44" />
  <path
     style="fill:none;stroke:#444053;stroke-miterlimit:10"
     inkscape:connector-curvature="0"
     d="m 755.4,171.19 c 0,0 7.17,9.5 9,7.37"
     stroke-miterlimit="10"
     id="path46" />
  <path
     style="fill:none;stroke:#444053;stroke-miterlimit:10"
     inkscape:connector-curvature="0"
     d="m 826.52,165.18 c 0,0 -35.8,2.6 -43.9,-8.2"
     stroke-miterlimit="10"
     id="path48" />
  <path
     style="fill:none;stroke:#444053;stroke-miterlimit:10"
     inkscape:connector-curvature="0"
     d="m 747.91,123.31 c 0,0 16.79,36.05 29,40.64"
     stroke-miterlimit="10"
     id="path50" />
  <path
     style="fill:none;stroke:#444053;stroke-miterlimit:10"
     inkscape:connector-curvature="0"
     d="m 765.49,106.14 c 0,0 10.31,33.16 23.09,43.51"
     stroke-miterlimit="10"
     id="path52" />
  <path
     style="fill:none;stroke:#444053;stroke-width:0.75;stroke-miterlimit:10"
     inkscape:connector-curvature="0"
     d="m 841.58,137.81 c 0,0 -27.22,11.68 -43.56,-0.14"
     stroke-miterlimit="10"
     id="path54" />
  <path
     style="fill:none;stroke:#444053;stroke-width:0.75;stroke-miterlimit:10"
     inkscape:connector-curvature="0"
     d="m 789.73,99.07 c 0,0 6.22,24.37 14.6,30.26"
     stroke-miterlimit="10"
     id="path56" />
  <path
     style="fill:none;stroke:#444053;stroke-width:0.75;stroke-miterlimit:10"
     inkscape:connector-curvature="0"
     d="m 837.47,110.5 c 0,0 -15.3,5.8 -21,1.36"
     stroke-miterlimit="10"
     id="path58" />
  <path
     style="fill:none;stroke:#444053;stroke-miterlimit:10"
     inkscape:connector-curvature="0"
     d="m 742.29,179.15 c 0,0 0,21.25 -5.78,22.76"
     stroke-miterlimit="10"
     id="path60" />
  <path
     style="fill:none;stroke:#444053;stroke-miterlimit:10"
     inkscape:connector-curvature="0"
     d="m 695,206.68 c 0,0 23,2 33.57,-9.89"
     stroke-miterlimit="10"
     id="path62" />
  <path
     style="fill:none;stroke:#444053;stroke-miterlimit:10"
     inkscape:connector-curvature="0"
     d="m 736.37,154.05 c 0,0 -5.56,21.55 -20.9,27.36"
     stroke-miterlimit="10"
     id="path64" />
  <path
     style="fill:none;stroke:#444053;stroke-miterlimit:10"
     inkscape:connector-curvature="0"
     d="m 681.22,183.98 c 0,0 16.26,5.65 30.25,-8.74"
     stroke-miterlimit="10"
     id="path66" />
  <path
     style="fill:none;stroke:#444053;stroke-miterlimit:10"
     inkscape:connector-curvature="0"
     d="m 718.28,135.52 c 0,0 -1.53,18.3 -11.48,26.87"
     stroke-miterlimit="10"
     id="path68" />
  <path
     style="fill:none;stroke:#444053;stroke-miterlimit:10"
     inkscape:connector-curvature="0"
     d="m 681.84,156.09 c 0,0 13.49,0.09 16.65,-4.31"
     stroke-miterlimit="10"
     id="path70" />
  <rect
     style="fill:#33323d"
     x="395.20999"
     y="225.58"
     width="384.20001"
     height="193.94"
     id="rect72" />
  <rect
     style="fill:#33323d"
     x="275.53"
     y="478.44"
     width="624.78003"
     height="127.66"
     id="rect74" />
  <polygon
     style="fill:#ffffff"
     points="808.87,725.16 357.16,725.16 424.67,510.35 745.04,510.35 "
     id="polygon76" />
  <polygon
     style="fill:#504f60"
     points="257.73,482.58 257.73,606.09 377.41,606.09 377.41,488.26 798.43,488.26 798.43,606.09 918.11,606.09 918.11,482.58 918.11,468.62 918.11,402.33 257.73,402.33 257.73,468.62 "
     id="polygon78" />
  <rect
     style="opacity:0.1;fill:#33323d"
     x="257.73001"
     y="402.32999"
     width="660.38"
     height="66.279999"
     id="rect80" />
  <circle
     style="opacity:0.8;fill:#8ccf4d"
     cx="882.52002"
     cy="435.48001"
     r="9.8199997"
     id="circle82" />
  <circle
     style="opacity:0.8;fill:#fa5959"
     cx="838.33002"
     cy="435.48001"
     r="9.8199997"
     id="circle84" />
  <rect
     style="fill:#ffffff"
     x="409.32999"
     y="178.92999"
     width="355.97"
     height="211.12"
     id="rect86" />
  <path
     style="fill:#fbbebe"
     inkscape:connector-curvature="0"
     d="m 819.45,487.07 c 0.75,8.17 -5.42,16.1 -3.62,24.1 0.38,1.71 1.12,3.33 1.39,5 0.74,4.75 -2.09,9.25 -4.8,13.23 l -23.23,34.18 a 21.22,21.22 0 0 1 -3.32,4.1 c -4.45,4 -11.11,3.54 -16.94,4.72 a 29.08,29.08 0 0 0 -11.35,5 0.74,0.74 0 0 0 -0.15,1 9.77,9.77 0 0 0 8.44,4 c 0.61,0.8 0,2 -0.84,2.56 -1.25,0.86 -3,1.09 -3.21,3.21 a 3.52,3.52 0 0 0 0.42,2.13 6.61,6.61 0 0 0 4.07,2.82 c 8,2.46 16.73,-1.86 22.75,-7.74 6.02,-5.88 10.34,-13.3 16.25,-19.29 3.27,-3.31 7,-6.15 10.36,-9.36 6.72,-6.4 12,-14.19 17,-22 a 24.2,24.2 0 0 0 3.68,-7.49 c 0.62,-2.66 0.34,-5.47 1.06,-8.11 0.94,-3.45 3.47,-6.2 5.57,-9.1 4.13,-5.68 6.88,-12.62 6.33,-19.62 -0.55,-7 -4.87,-13.89 -11.47,-16.27 a 10.29,10.29 0 0 0 -6.43,-0.39 c -2.71,0.83 -4.7,3.07 -6.55,5.21 l -4.41,5.09 a 12.29,12.29 0 0 0 -2.57,3.91 4.07,4.07 0 0 0 0.91,4.34"
     id="path88" />
  <path
     style="opacity:0.05"
     inkscape:connector-curvature="0"
     d="m 819.45,487.07 c 0.75,8.17 -5.42,16.1 -3.62,24.1 0.38,1.71 1.12,3.33 1.39,5 0.74,4.75 -2.09,9.25 -4.8,13.23 l -23.23,34.18 a 21.22,21.22 0 0 1 -3.32,4.1 c -4.45,4 -11.11,3.54 -16.94,4.72 a 29.08,29.08 0 0 0 -11.35,5 0.74,0.74 0 0 0 -0.15,1 9.77,9.77 0 0 0 8.44,4 c 0.61,0.8 0,2 -0.84,2.56 -1.25,0.86 -3,1.09 -3.21,3.21 a 3.52,3.52 0 0 0 0.42,2.13 6.61,6.61 0 0 0 4.07,2.82 c 8,2.46 16.73,-1.86 22.75,-7.74 6.02,-5.88 10.34,-13.3 16.25,-19.29 3.27,-3.31 7,-6.15 10.36,-9.36 6.72,-6.4 12,-14.19 17,-22 a 24.2,24.2 0 0 0 3.68,-7.49 c 0.62,-2.66 0.34,-5.47 1.06,-8.11 0.94,-3.45 3.47,-6.2 5.57,-9.1 4.13,-5.68 6.88,-12.62 6.33,-19.62 -0.55,-7 -4.87,-13.89 -11.47,-16.27 a 10.29,10.29 0 0 0 -6.43,-0.39 c -2.71,0.83 -4.7,3.07 -6.55,5.21 l -4.41,5.09 a 12.29,12.29 0 0 0 -2.57,3.91 4.07,4.07 0 0 0 0.91,4.34"
     id="path90" />
  <path
     style="fill:#3f3d56"
     inkscape:connector-curvature="0"
     d="m 837.04,697.36 c -5.08,3.09 -11.4,3.29 -17.3,2.56 -1,-0.11 -2.07,-0.18 -2.68,0.55 -0.88,1.07 0.16,2.63 1.23,3.49 a 25.74,25.74 0 0 0 11.89,4.89 80.44,80.44 0 0 0 11.62,0.77 c 10.6,0.18 21.26,0.36 31.76,-1.17 a 4.29,4.29 0 0 0 1.73,-0.51 3.21,3.21 0 0 0 1.31,-2 c 0.73,-2.72 -0.66,-5.66 -2.75,-7.55 -2.09,-1.89 -4.78,-2.95 -7.41,-4 l -9.22,-3.59 c -2.17,-0.85 -5.64,-3.08 -8,-2.91 -4.31,0.35 -8.52,7.33 -12.18,9.47 z"
     id="path92" />
  <path
     style="opacity:0.05"
     inkscape:connector-curvature="0"
     d="m 837.04,697.36 c -5.08,3.09 -11.4,3.29 -17.3,2.56 -1,-0.11 -2.07,-0.18 -2.68,0.55 -0.88,1.07 0.16,2.63 1.23,3.49 a 25.74,25.74 0 0 0 11.89,4.89 80.44,80.44 0 0 0 11.62,0.77 c 10.6,0.18 21.26,0.36 31.76,-1.17 a 4.29,4.29 0 0 0 1.73,-0.51 3.21,3.21 0 0 0 1.31,-2 c 0.73,-2.72 -0.66,-5.66 -2.75,-7.55 -2.09,-1.89 -4.78,-2.95 -7.41,-4 l -9.22,-3.59 c -2.17,-0.85 -5.64,-3.08 -8,-2.91 -4.31,0.35 -8.52,7.33 -12.18,9.47 z"
     id="path94" />
  <path
     style="fill:#464353"
     inkscape:connector-curvature="0"
     d="m 843.47,574.91 c -3.83,5.11 -7.81,11 -6.86,17.33 0.51,3.41 2.42,6.42 3.82,9.57 a 67.41,67.41 0 0 1 3.87,13.44 c 1.44,6.69 2.88,13.4 3.76,20.19 1,7.67 -3.7,29.86 -4.14,37.59 -0.11,1.86 -0.32,3.88 -1.62,5.22 -0.51,0.53 -1.19,1 -1.41,1.65 a 2.77,2.77 0 0 0 0.3,1.94 c 2.17,4.89 6.6,8.52 11.52,10.6 4.92,2.08 16.89,5.65 22.23,5.84 a 4.21,4.21 0 0 0 2.09,-0.28 4,4 0 0 0 1.62,-1.85 c 3.86,-7.37 0.15,-33.61 0.21,-41.94 0,-7 1.69,-13.84 1.39,-20.78 -0.25,-5.57 -1.74,-11 -2.28,-16.56 -0.89,-9.11 0.78,-18.25 2.46,-27.25 1.28,-6.89 2.56,-13.79 4.2,-20.61 1,-4.15 2.16,-8.35 4.45,-12 1.81,-2.87 4.27,-5.26 6.34,-8 a 36,36 0 0 0 7.09,-26.38 c -0.12,-0.92 -13.32,3.35 -14.47,3.85 a 45.31,45.31 0 0 0 -12.89,8.3 c -3,2.9 -5.45,6.79 -8.13,10.05 q -5.67,6.9 -11.19,13.91 -6.27,8.05 -12.36,16.17 z"
     id="path96" />
  <path
     style="opacity:0.05"
     inkscape:connector-curvature="0"
     d="m 843.47,574.58 c -3.83,5.11 -7.81,11 -6.86,17.34 0.51,3.4 2.42,6.41 3.82,9.56 a 67.6,67.6 0 0 1 3.87,13.44 c 1.44,6.69 2.88,13.4 3.76,20.19 1,7.67 -3.7,29.87 -4.14,37.6 -0.11,1.85 -0.32,3.88 -1.62,5.21 -0.51,0.53 -1.19,1 -1.41,1.65 a 2.81,2.81 0 0 0 0.3,2 c 2.17,4.88 6.6,8.52 11.52,10.59 4.92,2.07 16.89,4 22.23,4.17 a 4.21,4.21 0 0 0 2.09,-0.28 4,4 0 0 0 1.62,-1.85 c 3.86,-7.37 0.15,-31.94 0.21,-40.26 0,-7 1.69,-13.85 1.39,-20.79 -0.25,-5.57 -1.74,-11 -2.28,-16.56 -0.89,-9.11 0.78,-18.25 2.46,-27.24 1.28,-6.9 2.56,-13.8 4.2,-20.62 1,-4.15 2.16,-8.35 4.45,-12 1.81,-2.86 4.27,-5.26 6.34,-7.94 a 36.07,36.07 0 0 0 7.09,-26.38 c -0.12,-0.93 -13.32,3.34 -14.47,3.85 a 45.06,45.06 0 0 0 -12.89,8.32 c -3,2.91 -5.45,6.79 -8.13,10 q -5.67,6.9 -11.19,13.92 -6.27,8 -12.36,16.08 z"
     id="path98" />
  <circle
     style="fill:#fbbebe"
     cx="800.78003"
     cy="440.87"
     r="21.530001"
     id="circle100" />
  <path
     style="fill:#fbbebe"
     inkscape:connector-curvature="0"
     d="m 820.16,439.97 a 27.94,27.94 0 0 0 17.87,12.5 l -1.62,5.87 c -2.8,10.13 -6,20.84 -13.77,27.86 0.85,-3.43 -0.25,-7.12 -2.19,-10.07 a 38.61,38.61 0 0 0 -7.31,-7.64 l -12.39,-10.78 a 3.7,3.7 0 0 1 -0.93,-1 3.21,3.21 0 0 1 0,-2.36 c 1.58,-4.91 6.09,-8 9.74,-11.3 a 34.62,34.62 0 0 0 4.9,-5.71 c 2.54,-3.53 4.07,0 5.7,2.63 z"
     id="path102" />
  <path
     style="fill:#464353"
     inkscape:connector-curvature="0"
     d="m 772.41,419.23 -0.48,-4 c 3.4,0.88 6.62,-2 8.79,-5 2.17,-3 4.19,-6.52 7.5,-7.76 4,-1.52 8.28,0.91 12.12,2.91 a 38.39,38.39 0 0 0 13.92,4.55 9,9 0 0 1 2.3,0.38 c 2.5,0.89 3.69,4 4.05,6.87 0.36,2.87 0.26,5.87 1.5,8.41 0.93,1.92 2.54,3.35 3.52,5.24 2.63,5.1 0.09,12.06 2.87,17.06 l -6.9,-6.33 c -0.64,-0.58 -1.53,-1.18 -2.22,-0.69 -0.69,0.49 -0.59,1.23 -0.82,1.9 -0.67,2 -3.12,2.56 -4.91,1.79 -1.79,-0.77 -3.08,-2.47 -4.39,-4 -3.05,-3.6 -6.68,-6.76 -11,-8.3 a 14.06,14.06 0 0 0 -11.59,0.69 c -3.22,1.82 -5.58,6.06 -9.52,6.21 -5.41,0.2 -7.66,-9.87 -10.17,-13.85 a 4.9,4.9 0 0 0 1.42,-6.11 c 0.44,-0.17 3.94,-0.62 4.01,0.03 z"
     id="path104" />
  <path
     style="fill:#3f3d56"
     inkscape:connector-curvature="0"
     d="m 862.15,697.19 a 22.76,22.76 0 0 1 -15.48,5.77 c -1.45,0 -3.46,0.28 -3.47,1.73 a 2.32,2.32 0 0 0 0.42,1.2 14.23,14.23 0 0 0 8,6.26 c 3.1,0.94 6.42,0.78 9.66,0.62 l 9.45,-0.49 c 1.78,-0.1 3.57,-0.19 5.35,-0.41 1.78,-0.22 3.7,-0.59 5.56,-0.86 a 72.75,72.75 0 0 1 13.76,-0.65 c 1.22,0.05 2.63,0 3.39,-0.92 0.76,-0.92 0.35,-2.58 0.07,-3.91 -0.56,-2.74 0,-5.61 -0.52,-8.36 -0.91,-4.83 -5.06,-8.52 -9.64,-10.27 -4.25,-1.62 -11.79,-3.47 -15.82,-0.78 -4.32,2.9 -6.92,7.62 -10.73,11.07 z"
     id="path106" />
  <path
     style="fill:#464353"
     inkscape:connector-curvature="0"
     d="m 871.51,535.58 c 0.84,4 4.67,7 4.79,11 0.09,3.24 -2.23,6 -3.89,8.75 a 58,58 0 0 0 -4,9 137.6,137.6 0 0 1 -11.68,23.15 c -2.22,3.51 -4.7,7.33 -4.19,11.46 a 17.17,17.17 0 0 0 2,5.48 l 6.65,13.21 a 38,38 0 0 1 3.4,8.35 c 0.57,2.51 0.63,5.11 1,7.67 1.05,8.1 4.85,16.26 2.61,24.11 -0.2,0.68 -0.9,1.5 -1.43,1 2.19,4.1 4,8.24 3.79,12.89 -0.09,2.44 -0.84,5 0.07,7.26 a 7.89,7.89 0 0 1 1,2.86 c 0,0.66 -0.31,1.29 -0.38,2 -0.18,1.87 1.53,3.43 3.32,4 1.79,0.57 3.72,0.55 5.52,1.09 3.47,1 5.93,4 8.9,6.08 a 18.71,18.71 0 0 0 10.22,3.33 2.56,2.56 0 0 0 1.5,-0.3 2.44,2.44 0 0 0 0.84,-1.83 10.14,10.14 0 0 0 -3.66,-8.81 4.07,4.07 0 0 1 -1.35,-1.42 3.4,3.4 0 0 1 -0.13,-1.59 118.71,118.71 0 0 0 -0.39,-21.82 33,33 0 0 1 -0.35,-6.94 c 0.2,-1.93 0.78,-3.85 0.56,-5.78 -0.22,-1.93 -1.19,-3.67 -1.77,-5.53 -1,-3.3 -0.74,-6.84 -0.85,-10.3 -0.18,-6 -1.55,-11.88 -2.92,-17.72 -0.53,-2.29 -1.13,-4.7 -2.76,-6.4 -1.38,-1.44 -3.61,-2.83 -3.09,-4.75 a 5.5,5.5 0 0 1 1.26,-1.89 7.59,7.59 0 0 0 1.59,-5.79 2.58,2.58 0 0 0 3,-1.4 c 10.81,-5.09 19.55,-15.29 23.4,-26.61 a 8.84,8.84 0 0 1 1,-2.37 c 1,-1.4 2.74,-2 4.28,-2.78 4.84,-2.43 8.19,-7 11.26,-11.47 1.79,-2.6 3.57,-5.28 4.34,-8.33 a 27.33,27.33 0 0 0 0.6,-6 l 0.27,-10.42 a 5.61,5.61 0 0 0 -0.2,-2 4.83,4.83 0 0 0 -1.12,-1.65 20.07,20.07 0 0 0 -11,-6 c -2.84,-0.51 -5.74,-0.41 -8.61,-0.65 -5.57,-0.46 -11.07,-2.18 -16.64,-1.78 -8.76,0.64 -16.55,6.71 -20.68,14.46 -1.45,2.77 -2.97,5.18 -6.08,5.18 z"
     id="path108" />
  <path
     style="fill:#6c63ff"
     inkscape:connector-curvature="0"
     d="m 822.91,467.82 a 11.43,11.43 0 0 1 -0.63,4.74 c -0.68,1.46 -2.4,2.59 -3.89,2 0.45,-1 -0.75,-2.19 -1.86,-2.06 a 3.46,3.46 0 0 0 -2.46,2.09 7.76,7.76 0 0 0 -0.71,4.81 c 0.35,2 1.53,4 1.22,6 -0.25,1.7 -1.5,3.4 -0.83,5 a 8.1,8.1 0 0 0 1.6,1.92 5.42,5.42 0 0 1 -0.57,7.45 l 16.78,0.33 c -0.61,2.81 0.64,5.68 2.08,8.17 a 51.46,51.46 0 0 0 38.35,25 3.35,3.35 0 0 0 -0.8,5.11 c 1.36,1.35 3.67,1.18 5.38,0.3 1.71,-0.88 3.06,-2.33 4.62,-3.45 a 14.11,14.11 0 0 1 9.48,-2.56 c 2.1,0.2 4.14,0.88 6.25,1 6.22,0.33 11.56,-4.14 17.51,-6 4.36,-1.34 9.29,-1.34 13,-4.06 1.58,-1.17 2.87,-3.09 2.41,-5 a 8.29,8.29 0 0 0 -1.81,-2.94 c -2.11,-2.72 -3.35,-6 -4.85,-9.09 a 54.48,54.48 0 0 0 -12.13,-16.24 108.92,108.92 0 0 0 -12,-9.13 21.13,21.13 0 0 0 -3.26,-2 34.11,34.11 0 0 1 -4.46,-1.81 c -2,-1.24 -3.11,-3.43 -4.62,-5.2 -3.33,-3.88 -8.44,-5.67 -12.54,-8.72 -2.75,-2 -5.17,-4.74 -8.46,-5.73 -1.59,-0.48 -3.29,-0.52 -4.89,-1 -3.62,-1.1 -6.26,-4.32 -9.82,-5.62 -2.82,-1 -5.92,-0.76 -8.9,-1.13 a 20.56,20.56 0 0 1 -9.13,-3.47 11,11 0 0 0 -3,-1.72 c -4.49,-1.37 -4.86,7 -5.28,9.91 -0.67,4.45 -1.78,8.73 -1.78,13.1 z"
     id="path110" />
  <path
     style="fill:#fbbebe"
     inkscape:connector-curvature="0"
     d="m 827.29,495.92 c 0.75,8.17 -5.42,16.09 -3.62,24.1 0.38,1.71 1.12,3.33 1.39,5 0.75,4.75 -2.09,9.25 -4.8,13.22 l -23.23,34.1 a 21.22,21.22 0 0 1 -3.32,4.1 c -4.45,4 -11.11,3.54 -16.94,4.72 a 29.15,29.15 0 0 0 -11.35,5 0.74,0.74 0 0 0 -0.15,1 9.74,9.74 0 0 0 8.44,4 c 0.61,0.81 0,2 -0.84,2.56 -1.25,0.87 -3,1.1 -3.21,3.22 a 3.52,3.52 0 0 0 0.42,2.13 6.65,6.65 0 0 0 4.07,2.82 c 8,2.46 16.73,-1.86 22.75,-7.74 6.02,-5.88 10.34,-13.3 16.26,-19.29 3.27,-3.31 7,-6.15 10.35,-9.36 6.73,-6.4 11.95,-14.19 17,-22 a 24.31,24.31 0 0 0 3.68,-7.49 c 0.62,-2.66 0.34,-5.47 1.06,-8.11 0.94,-3.45 3.47,-6.21 5.57,-9.1 4.13,-5.68 6.88,-12.62 6.33,-19.62 -0.55,-7 -4.87,-13.89 -11.47,-16.27 a 10.22,10.22 0 0 0 -6.43,-0.39 c -2.7,0.83 -4.7,3.07 -6.55,5.21 l -4.41,5.09 a 12.09,12.09 0 0 0 -2.56,3.91 4.05,4.05 0 0 0 0.9,4.33"
     id="path112" />
  <path
     style="fill:#6c63ff"
     inkscape:connector-curvature="0"
     d="m 839.05,462.35 c -3.06,0.18 -6.42,0.48 -8.58,2.66 a 12.33,12.33 0 0 0 -2.16,3.38 c -2.09,4.27 -4.13,8.73 -4.28,13.48 -0.13,3.8 1,7.51 1.55,11.27 0.48,3.12 -0.74,6.3 -1,9.46 3.79,-1.16 8.79,-2.74 12.23,-4.7 a 40.48,40.48 0 0 1 7.15,-3.72 c 3.65,-1.21 9.78,0.87 13.22,2.58 0.19,-2.44 -1.63,-6.67 -1.44,-9.11 a 10.31,10.31 0 0 1 0.54,-3 18.44,18.44 0 0 1 1.83,-2.91 11.92,11.92 0 0 0 -1.07,-14 c -3.07,-3.46 -7.89,-4.76 -12.48,-5.29 a 54.12,54.12 0 0 0 -8.72,-0.31"
     id="path114" />
  <path
     inkscape:connector-curvature="0"
     style="fill:url(#linearGradient5116)"
     d="m 386,392.39 -19.72,-28.6 c 0,0 -0.37,-7.08 -1.66,-8.73 -1.29,-1.65 -0.28,-5.33 -0.28,-5.33 0,0 1.39,-2 0.19,-2.21 -1.2,-0.21 -0.19,-4.69 -0.19,-4.69 l -0.09,-7.17 c 0,0 1.11,-6.9 0.19,-8.55 a 2.71,2.71 0 0 1 0.09,-2.95 c 0,0 1.1,-3.95 0,-5 -1.1,-1.05 -0.83,-7.17 -0.56,-12.05 0.27,-4.88 -1.93,-7.63 -1.93,-8.36 0,-0.73 -7.28,-7.91 -7.28,-8.56 0,-0.65 -4.61,-3.31 -7.38,-4 -2.77,-0.69 -4.14,-1.29 -4.05,-1.66 0.09,-0.37 -4.33,-1.83 -4.33,-1.83 0,0 -3.87,-0.28 -5.35,-2.21 -1.48,-1.93 -6,-2.49 -6.11,-2.51 l -0.09,-0.38 c 0,-0.14 -0.05,-0.28 -0.08,-0.42 a 19.34,19.34 0 0 0 1,-1.8 l 0.26,-0.56 a 7.82,7.82 0 0 0 4.53,-1.41 6.13,6.13 0 0 0 2.21,-4.41 9.64,9.64 0 0 0 -1.08,-4.9 c -0.81,-1.65 -2,-3.37 -1.58,-5.17 0.18,-0.77 0.64,-1.45 0.88,-2.21 a 5.84,5.84 0 0 0 -0.66,-4.36 c -0.7,-1.33 -1.67,-2.51 -2.45,-3.8 a 15,15 0 0 1 -1.95,-5.38 8.29,8.29 0 0 0 -0.71,-2.93 5.47,5.47 0 0 0 -1.62,-1.63 16.18,16.18 0 0 0 -9.91,-3 c -2.51,0.08 -5,0.76 -7.5,0.45 a 26.87,26.87 0 0 1 -4.38,-1.14 c -3.09,-0.92 -6.66,-1.29 -9.35,0.48 -2.69,1.77 -3.76,5.25 -5.59,8 -1.61,2.4 -4,4.42 -5.2,7 0,0 0,-0.1 0,-0.14 a 8.38,8.38 0 0 0 -0.69,1.85 13.18,13.18 0 0 0 0.41,6.1 4.24,4.24 0 0 0 1.49,2.72 c 0.91,0.59 2.16,0.45 3.22,0.64 l -0.12,0.52 a 21.05,21.05 0 0 0 14.61,24.48 c 0,0.19 0,0.37 0,0.56 a 13.4,13.4 0 0 1 -0.1,1.58 v 0 c 0,0 -9.27,-1.91 -11.76,-0.62 -2.49,1.29 -7.37,2.3 -8.11,3 -0.74,0.7 -2.58,0.19 -4.24,4.51 -1.66,4.32 -1.84,8.73 -4,10.76 -2.16,2.03 -3.22,3.4 -3.32,4.87 -0.1,1.47 0.28,1.84 -0.55,2.3 -0.83,0.46 -2,2.39 -1.66,3.13 a 2.61,2.61 0 0 1 -1,2.75 3.06,3.06 0 0 0 -1.29,2.76 c 0,0 -0.56,2 -1.85,2.49 -1.29,0.49 -2.12,3.49 -2.12,3.49 l -4.18,4.8 -8.28,-9.16 a 3.5,3.5 0 0 0 -4.93,-0.25 l -4.07,3.66 a 8.06,8.06 0 0 0 -4.07,2.42 10.84,10.84 0 0 0 -2.11,3.14 l -2.22,2 a 5.67,5.67 0 0 0 -0.58,6.25 l 5.31,5.87 v 0.05 a 9.4,9.4 0 0 0 -5.13,2.09 c -7.92,7 -8,13.43 -6.82,16.37 1.18,2.94 11.24,14.25 11.24,14.25 0,0 5.84,7.59 14.27,11.62 v 0 l -0.06,0.07 a 6.94,6.94 0 0 0 -0.49,0.57 l -0.14,0.18 -0.13,0.18 -0.15,0.22 a 1.74,1.74 0 0 0 -0.11,0.18 l -0.16,0.26 a 1.62,1.62 0 0 0 -0.1,0.18 c -0.07,0.12 -0.13,0.24 -0.19,0.36 a 1.34,1.34 0 0 0 -0.06,0.12 c -0.08,0.16 -0.16,0.32 -0.23,0.5 l -0.08,0.18 c -0.05,0.12 -0.09,0.24 -0.14,0.37 a 2.25,2.25 0 0 0 -0.08,0.24 l -0.12,0.36 a 2,2 0 0 0 -0.08,0.26 c 0,0.13 -0.08,0.26 -0.11,0.4 -0.03,0.14 -0.05,0.16 -0.07,0.25 -0.02,0.09 -0.1,0.43 -0.14,0.66 0,0.08 0,0.17 -0.05,0.26 -0.05,0.09 -0.05,0.31 -0.08,0.47 -0.03,0.16 0,0.22 0,0.34 l -0.06,0.45 v 0.36 c 0,0.17 0,0.34 -0.05,0.52 -0.05,0.18 0,0.21 0,0.32 0,0.29 0,0.58 0,0.89 -0.18,10.76 0.45,12.32 0.45,12.32 a 6,6 0 0 0 4.89,3.67 6.1,6.1 0 0 0 1.57,-0.08 c 4.8,-0.83 16,-2.76 20,-2 2.39,0.44 6.8,-0.22 9.94,-0.81 l 0.83,-0.16 0.57,1.83 1.82,-0.5 1.55,0.89 1,0.57 c 1.82,6.16 9.2,4.06 9.2,4.06 l 1.75,1 17.79,0.46 a 35.7,35.7 0 0 0 6.3,3 4.84,4.84 0 0 0 0.89,0.2 39.57,39.57 0 0 0 5,0.09 c 1.36,0 2.41,-0.09 2.41,-0.09 0,0 -0.18,-4.83 -0.44,-10.24 a 145.13,145.13 0 0 0 16.48,-1.35 c 9.5,-1.66 13.46,-10.3 14.92,-14.92 a 43.61,43.61 0 0 1 0.93,5.73 41.57,41.57 0 0 0 1.48,5 16.67,16.67 0 0 0 2,3.68 c 7,-2.39 2.76,-6 1.29,-7.54 -1.47,-1.54 1,-2.85 1,-2.85 0,0 1.94,-1.29 1.75,-2.48 -0.19,-1.19 -0.28,-2.48 6,-2.39 6.28,0.09 5.89,-5.12 5.89,-5.12 z m -97.32,-58.71 c 0.08,0.52 1,6.19 1.74,7.68 a 10,10 0 0 1 0.21,3 c -3.71,-0.3 -7.58,-0.46 -7.58,-0.46 a 0.94,0.94 0 0 1 0.2,0.47 l -0.59,-0.13 -0.84,-0.2 6.84,-10.41 z m -13.56,21.56 6.43,1 0.54,0.08 a 21,21 0 0 0 -0.33,3 c 0,0.1 0.14,0.21 0.35,0.34 a 7.91,7.91 0 0 0 -0.12,1.53 c 0.1,0.5 3.1,1.6 6.55,2.51 -0.05,0.19 -0.09,0.37 -0.14,0.53 v 0 c -3.05,-1.6 -7.84,-2.35 -8.39,-3.54 -0.55,-1.19 -16.87,-6.89 -16.87,-6.89 l -1.62,-0.81 4.29,0.81 1.18,-0.12 a 63.73,63.73 0 0 0 8.13,1.56 z"
     id="path116" />
  <path
     style="fill:#65617d"
     inkscape:connector-curvature="0"
     d="m 365.02,396.39 c 0,0 -2.55,15.44 -15.52,17.72 -12.97,2.28 -56.27,1.83 -56.27,1.83 0,0 -24.76,-3.57 -33.71,-24.48 -8.95,-20.91 -14.71,-29.24 -7,-29.6 7.71,-0.36 49.06,14 51.43,14.16 2.37,0.16 63.36,-31.79 61.07,20.37 z"
     id="path118" />
  <path
     style="opacity:0.05"
     inkscape:connector-curvature="0"
     d="m 365.02,396.39 c 0,0 -2.55,15.44 -15.52,17.72 -12.97,2.28 -56.27,1.83 -56.27,1.83 0,0 -24.76,-3.57 -33.71,-24.48 -8.95,-20.91 -14.71,-29.24 -7,-29.6 7.71,-0.36 49.06,14 51.43,14.16 2.37,0.16 63.36,-31.79 61.07,20.37 z"
     id="path120" />
  <path
     style="fill:#3f3d56"
     inkscape:connector-curvature="0"
     d="m 248.91,413.58 a 5.91,5.91 0 0 0 4.84,3.65 6.62,6.62 0 0 0 1.57,-0.09 c 4.75,-0.82 15.89,-2.74 19.82,-2 2.36,0.43 6.73,-0.22 9.84,-0.8 2.07,-0.39 3.59,-0.76 3.59,-0.76 0,0 -3.66,-12.15 -4.11,-12.51 -0.45,-0.36 -16.45,-10 -16.45,-10 l -12.66,-0.91 v 0 a 6.69,6.69 0 0 0 -4.3,2.52 c -1.33,1.62 -2.48,4.27 -2.56,8.62 -0.21,10.71 0.42,12.28 0.42,12.28 z"
     id="path122" />
  <path
     style="opacity:0.05"
     inkscape:connector-curvature="0"
     d="m 248.91,413.58 a 5.91,5.91 0 0 0 4.84,3.65 53.76,53.76 0 0 1 -3.44,-5 l 0.07,-8.86 a 15.64,15.64 0 0 1 5,-13.15 v 0 c 0,0 -6.67,0.45 -6.86,11.14 -0.19,10.69 0.39,12.22 0.39,12.22 z"
     id="path124" />
  <path
     style="opacity:0.1"
     inkscape:connector-curvature="0"
     d="m 303.82,394.2 11.79,-9.23 18.54,-18.27 -5,-0.23 c -0.75,0.48 -2.85,2 -2.93,3.82 -0.09,2.23 -5,0.16 -7.57,1.43 -2.57,1.27 -15.07,17.3 -17.26,17.19 -2.19,-0.11 -3.93,-1.11 -4.85,0.45 l -0.06,0.1 z"
     id="path126" />
  <path
     style="opacity:0.1"
     inkscape:connector-curvature="0"
     d="m 251.02,392.7 c 0.42,0.2 0.85,0.4 1.28,0.58 8.95,3.84 20,11.88 20.83,13.34 0.5,0.89 6.91,4.78 11.85,7.7 2.07,-0.39 3.59,-0.76 3.59,-0.76 0,0 -3.66,-12.15 -4.11,-12.51 -0.45,-0.36 -16.45,-10 -16.45,-10 l -12.66,-0.91 v 0 a 6.69,6.69 0 0 0 -4.33,2.56 z"
     id="path128" />
  <path
     style="fill:#65617d"
     inkscape:connector-curvature="0"
     d="m 226.18,366.52 c 1.18,2.92 11.14,14.16 11.14,14.16 0,0 6.3,8.22 15.26,12 8.96,3.78 20,11.88 20.82,13.34 0.53,0.94 7.67,5.24 12.69,8.19 l 1.13,0.66 2.49,1.45 1.32,0.75 c 0,0 3.06,-2.45 6.11,-4.92 3.05,-2.47 6,-4.89 6,-5 0,-0.11 1.28,-3.38 1,-3.56 -0.28,-0.18 -0.77,-1.36 -1.93,-2.83 a 12.88,12.88 0 0 0 -4.65,-3.84 13.25,13.25 0 0 1 -6,-6.29 c 0,0 -0.4,-0.29 -1,-0.68 a 12.38,12.38 0 0 0 -4.1,-1.83 c -2,-0.25 -5.76,-4.36 -5.76,-4.36 a 11.18,11.18 0 0 1 -3.56,-3.74 c -1,-2 -15.13,-11.74 -16.44,-12.64 l 34.34,22.06 8.22,5.28 11.79,-9.22 18.54,-18.27 -6.12,-0.28 c -9,-0.39 -25,-1 -27,-0.54 a 15.69,15.69 0 0 1 -5,0.33 c 0,0 -4.56,0.2 -7.58,-1.39 -3.02,-1.59 -7.77,-2.34 -8.32,-3.52 -0.55,-1.18 -16.71,-6.84 -16.71,-6.84 0,0 -22,-11.69 -29.87,-4.75 -7.87,6.94 -8,13.34 -6.81,16.28 z"
     id="path130" />
  <path
     style="fill:#ee8e9e"
     inkscape:connector-curvature="0"
     d="m 297.15,299.47 2.83,9.41 3.66,21.19 13.43,0.91 3.84,-6.4 3.88,-6.44 c 0,0 2.42,-8.56 4.16,-16.84 1.53,-7.33 2.54,-14.45 0.87,-15.22 -1.49,-0.68 -2.46,-3.15 -3.1,-5.81 -0.08,-0.32 -0.15,-0.66 -0.21,-1 a 52.66,52.66 0 0 1 -0.9,-6.81 c 0,0 -28.13,-1.46 -24.2,10.14 a 18.51,18.51 0 0 1 1.06,6.17 c 0,0.54 0,1.07 -0.1,1.57 a 13.15,13.15 0 0 1 -5.22,9.13 z"
     id="path132" />
  <path
     style="fill:#e3e8f4"
     inkscape:connector-curvature="0"
     d="m 291.31,297.92 1,16 2.28,13.61 2.56,6.31 2.29,34.48 c 0,0 22,2.55 27.38,-0.05 a 2.28,2.28 0 0 0 1,-0.75 c 6.47,-9.77 4.35,-38.07 4.35,-38.07 l 2.46,-18.27 -1.64,-9.48 -4,-0.42 -3.06,-0.33 c 0,0 -0.69,0.85 -1.69,2.17 -2.71,3.57 -7.69,10.61 -7.35,13.54 0.45,4 -0.55,8.13 -2.11,8.77 -1.56,0.64 -2.83,1.74 -3.1,0.64 a 4.91,4.91 0 0 1 -0.28,-2.92 c 0.28,-1.56 -1.19,-6.31 -1.19,-6.31 0,0 -2.46,-5.57 -2.28,-7.94 0.18,-2.37 -0.27,-5.12 -1,-5.76 -0.73,-0.64 -1.74,-1.28 -0.92,-4.2 0.82,-2.92 -3.6,-8.61 -3.6,-8.61 z"
     id="path134" />
  <path
     style="opacity:0.1"
     inkscape:connector-curvature="0"
     d="m 320.4,337.84 0.92,27.31 5.27,2.93 a 2.37,2.37 0 0 0 1,-0.76 c 6.47,-9.77 4.35,-38.07 4.35,-38.07 l 2.47,-18.27 -1.65,-9.48 -4,-0.42 c 1.54,-7.33 2.54,-14.44 0.87,-15.22 -1.49,-0.68 -2.46,-3.15 -3.09,-5.8 v 0 l -2.85,19.32 c 0,0 0.24,1.74 0.32,3.54 a 10,10 0 0 1 -0.23,3.4 11.35,11.35 0 0 0 -0.18,4.57 c -1.65,2.9 -2.47,8.28 -2.87,13.47 -0.54,6.9 -0.33,13.48 -0.33,13.48 z"
     id="path136" />
  <path
     style="fill:#3f3d56"
     inkscape:connector-curvature="0"
     d="m 326.62,279.58 c 0,0 4.61,0.57 6.07,2.49 1.46,1.92 5.3,2.2 5.3,2.2 0,0 4.38,1.46 4.29,1.82 -0.09,0.36 1.28,0.92 4,1.65 2.72,0.73 7.31,3.38 7.31,4 0,0.62 7.21,7.76 7.21,8.49 0,0.73 2.19,3.47 1.92,8.31 -0.27,4.84 -0.55,11 0.55,12 1.1,1 0,4.93 0,4.93 a 2.7,2.7 0 0 0 -0.09,2.93 c 0.91,1.64 -0.19,8.49 -0.19,8.49 l 0.1,7.13 c 0,0 -1,4.47 0.18,4.66 1.18,0.19 -0.18,2.19 -0.18,2.19 0,0 -1,3.65 0.27,5.3 1.27,1.65 1.64,8.67 1.64,8.67 l 19.55,28.41 c 0,0 0.28,5.21 -5.93,5.12 -6.21,-0.09 -6.13,1.19 -5.94,2.37 0.19,1.18 -1.74,2.47 -1.74,2.47 0,0 -2.46,1.28 -1,2.83 1.46,1.55 5.66,5.12 -1.28,7.49 a 16.54,16.54 0 0 1 -2,-3.65 41.46,41.46 0 0 1 -1.46,-4.93 c 0,0 -0.64,-6.95 -1.92,-7.86 -1.28,-0.91 -1.1,-5.3 -1.1,-5.3 0,0 1.83,-3.56 -0.73,-5 -2.56,-1.44 -39.64,-22 -39.64,-22 l -0.9,-27.32 c 0,0 -0.64,-20.19 3.2,-26.95 a 11.35,11.35 0 0 1 0.18,-4.57 c 0.64,-1.64 -0.09,-6.94 -0.09,-6.94 z"
     id="path138" />
  <path
     style="opacity:0.1"
     inkscape:connector-curvature="0"
     d="m 302.68,290.58 c 0,0 -9.18,-1.89 -11.65,-0.61 -2.47,1.28 -7.3,2.28 -8,3 -0.7,0.72 -2.55,0.19 -4.2,4.48 -1.65,4.29 -1.82,8.68 -3.93,10.69 -2.11,2.01 -3.19,3.38 -3.28,4.84 -0.09,1.46 0.27,1.83 -0.55,2.28 -0.82,0.45 -2,2.38 -1.65,3.11 0.35,0.73 19,16.81 19,16.81 0,0 0.92,6.12 1.74,7.67 0.82,1.55 -0.91,22.93 -2.74,24.39 -1.83,1.46 12.29,1.34 12.29,1.34 0,0 0.64,-14 1.19,-14.76 0.55,-0.76 -0.37,-15.71 -0.37,-15.71 0,0 -0.09,-12.79 1.1,-16.17 1.19,-3.38 1,-14.62 1,-14.62 0,0 1.05,-6.74 2.33,-8.31 1.28,-1.57 -2.28,-8.43 -2.28,-8.43 z"
     id="path140" />
  <path
     style="fill:#3f3d56"
     inkscape:connector-curvature="0"
     d="m 302.41,290.31 c 0,0 -9.18,-1.89 -11.65,-0.62 -2.47,1.27 -7.31,2.29 -8,3 -0.69,0.71 -2.56,0.18 -4.2,4.48 -1.64,4.3 -1.83,8.67 -3.93,10.68 -2.1,2.01 -3.2,3.38 -3.29,4.84 -0.09,1.46 0.28,1.83 -0.55,2.29 -0.83,0.46 -2,2.37 -1.64,3.1 0.36,0.73 19,16.81 19,16.81 0,0 0.91,6.12 1.74,7.67 0.83,1.55 -0.92,22.93 -2.75,24.39 -1.83,1.46 12.34,1.33 12.34,1.33 0,0 0.64,-14 1.18,-14.75 0.54,-0.75 -0.36,-15.72 -0.36,-15.72 0,0 -0.09,-12.78 1.1,-16.16 1.19,-3.38 1.05,-14.62 1.05,-14.62 0,0 1.05,-6.74 2.33,-8.31 1.28,-1.57 -2.37,-8.41 -2.37,-8.41 z"
     id="path142" />
  <path
     style="opacity:0.1"
     inkscape:connector-curvature="0"
     d="m 301.45,282.58 a 18.51,18.51 0 0 1 1.06,6.17 21,21 0 0 0 24,-9.5 52.66,52.66 0 0 1 -0.9,-6.81 c 0,0 -28.09,-1.47 -24.16,10.14 z"
     id="path144" />
  <path
     style="fill:#ee8e9e"
     inkscape:connector-curvature="0"
     d="m 287.56,268.14 a 20.93,20.93 0 1 0 0.46,-4.35 20.71,20.71 0 0 0 -0.46,4.35 z"
     id="path146" />
  <path
     style="fill:#3f3d56"
     inkscape:connector-curvature="0"
     d="m 274.13,316.58 -5,1.55 a 2.59,2.59 0 0 1 -1,2.74 3,3 0 0 0 -1.27,2.74 c 0,0 -0.55,2 -1.83,2.47 -1.28,0.47 -2.1,3.47 -2.1,3.47 l -4.2,4.84 c 0,0 -1.56,1.28 -1.28,1.92 0.28,0.64 -1.65,0.82 -1.65,0.82 l 1,16.26 8.68,1.65 5.39,-0.55 4.38,-1.64 3.84,-2.29 1.73,-4.47 7.68,-11.7 z"
     id="path148" />
  <path
     style="fill:#ee8e9e"
     inkscape:connector-curvature="0"
     d="m 257.05,338.38 c 0,0 -11.14,-16.07 -19.46,-7.4 -8.32,8.67 3.38,22.75 6.12,22.29 2.74,-0.46 15.81,-1.19 15.81,-1.19 z"
     id="path150" />
  <rect
     style="fill:#3f3d56"
     x="346.21008"
     y="166.41312"
     width="58.330002"
     height="45.290001"
     rx="1.54"
     transform="rotate(27.04)"
     id="rect152" />
  <rect
     style="fill:#6c63ff"
     x="350.90842"
     y="170.48314"
     width="49.029999"
     height="36.950001"
     transform="rotate(27.04)"
     id="rect154" />
  <circle
     style="fill:#e6e8ec"
     cx="224.97"
     cy="326.95999"
     r="0.80000001"
     id="circle156" />
  <circle
     style="fill:#e6e8ec"
     cx="272.23999"
     cy="351.17999"
     r="1.33"
     id="circle158" />
  <path
     style="fill:#ee8e9e"
     inkscape:connector-curvature="0"
     d="m 249.84,341.76 c -0.1,12.06 24.84,14.62 24.84,14.62 l 6.37,1 2.86,0.45 1.19,-11.78 c 0,0 -1.31,-0.2 -2.94,-0.58 -2.42,-0.56 -5.55,-1.53 -6.2,-2.9 -1.05,-2.27 -26.05,-12.87 -26.12,-0.81 z"
     id="path160" />
  <path
     style="opacity:0.1"
     inkscape:connector-curvature="0"
     d="m 288.02,263.79 a 2.48,2.48 0 0 1 1.53,0.68 c 0.7,0.75 0.74,2.08 1.66,2.54 a 1.92,1.92 0 0 0 1.09,0.12 c 2.43,-0.34 3.83,-3.08 6.17,-3.84 a 6.19,6.19 0 0 1 4.08,0.35 3.19,3.19 0 0 1 1.36,0.87 c 0.78,1 0.23,2.5 0.59,3.72 0.5,1.7 2.53,2.37 4.28,2.59 1.75,0.22 3.73,0.35 4.9,1.67 a 4.44,4.44 0 0 1 0.87,3.54 2.76,2.76 0 0 0 0,1.31 c 0.48,1.37 2.85,1.16 3.47,0.08 0.46,-0.79 0.32,-1.44 1.39,-1.66 a 4.53,4.53 0 0 1 2.23,0.39 16.54,16.54 0 0 0 5.79,0.89 20.92,20.92 0 1 0 -39.4,-13.25 z"
     id="path162" />
  <path
     style="fill:#3f3d56"
     inkscape:connector-curvature="0"
     d="m 314.54,276.79 a 2.77,2.77 0 0 1 0,-1.31 4.41,4.41 0 0 0 -0.87,-3.53 c -1.17,-1.33 -3.14,-1.45 -4.9,-1.68 -1.76,-0.23 -3.78,-0.89 -4.28,-2.59 -0.36,-1.22 0.19,-2.71 -0.59,-3.71 a 3,3 0 0 0 -1.36,-0.87 6.2,6.2 0 0 0 -4.08,-0.36 c -2.34,0.76 -3.74,3.5 -6.17,3.84 a 1.84,1.84 0 0 1 -1.09,-0.12 c -0.92,-0.46 -1,-1.79 -1.66,-2.54 -1.11,-1.17 -3.22,-0.41 -4.57,-1.28 a 4.21,4.21 0 0 1 -1.48,-2.71 13.14,13.14 0 0 1 -0.4,-6.06 c 0.79,-3.39 3.83,-5.72 5.76,-8.63 1.81,-2.7 2.83,-6.12 5.54,-7.91 2.71,-1.79 6.2,-1.39 9.27,-0.48 a 26.16,26.16 0 0 0 4.34,1.14 c 2.47,0.3 4.95,-0.37 7.43,-0.45 a 15.9,15.9 0 0 1 9.82,3 5.37,5.37 0 0 1 1.6,1.62 8.41,8.41 0 0 1 0.72,2.91 14.78,14.78 0 0 0 1.93,5.34 c 0.76,1.29 1.73,2.45 2.42,3.78 a 5.86,5.86 0 0 1 0.66,4.33 c -0.24,0.75 -0.7,1.43 -0.88,2.2 -0.4,1.78 0.77,3.49 1.57,5.13 a 9.62,9.62 0 0 1 1.07,4.87 6.1,6.1 0 0 1 -2.19,4.38 7.91,7.91 0 0 1 -4.63,1.41 16.65,16.65 0 0 1 -5.9,-0.89 4.65,4.65 0 0 0 -2.23,-0.39 c -1.07,0.22 -0.93,0.87 -1.39,1.66 -0.61,1.06 -2.97,1.27 -3.46,-0.1 z"
     id="path164" />
  <path
     style="opacity:0.1"
     inkscape:connector-curvature="0"
     d="m 303.27,394.74 11.79,-9.22 18.54,-18.27 -6.12,-0.28 a 4,4 0 0 0 -1.29,2.5 c -0.09,2.23 -5,0.15 -7.57,1.43 -2.57,1.28 -15.07,17.3 -17.26,17.19 -2.19,-0.11 -3.93,-1.11 -4.85,0.44 l -0.06,0.1 a 2.58,2.58 0 0 1 -1.4,0.83 z"
     id="path166" />
  <path
     style="fill:#65617d"
     inkscape:connector-curvature="0"
     d="m 279.52,394.1 5.92,18.91 0.93,3 2.82,-0.77 6.22,-1.71 27.68,-7.6 a 24.07,24.07 0 0 0 10,-2.66 30.17,30.17 0 0 1 17.2,-3.75 c 3.66,0.34 7.73,-1.24 11.11,-7.48 0,0 7.67,-22.65 -11.69,-29.14 -19.36,-6.49 -20.29,3.45 -20.29,3.45 l -0.27,0.16 c -0.75,0.48 -2.85,2 -2.93,3.82 -0.09,2.23 -5,0.16 -7.57,1.43 -2.57,1.27 -15.07,17.3 -17.26,17.19 -2.19,-0.11 -3.93,-1.11 -4.85,0.45 l -0.06,0.1 c -0.68,0.93 -2.71,1.15 -4.06,1.18 a 12,12 0 0 1 -1.26,0 l -0.18,0.05 -1.4,0.42 z"
     id="path168" />
  <path
     style="opacity:0.1"
     inkscape:connector-curvature="0"
     d="m 281.05,357.39 2.86,0.45 1.19,-11.78 c 0,0 -1.31,-0.2 -2.94,-0.58 0.43,1.65 -0.55,8 -1.11,11.91 z"
     id="path170" />
  <path
     style="opacity:0.1"
     inkscape:connector-curvature="0"
     d="m 355.75,302.33 c 0,0 8.49,-2.47 6.39,21.65 a 67.44,67.44 0 0 1 -17.81,39.37 c 0,0 -18.09,7.94 -26.22,6.66 -8.13,-1.28 -14.06,-1.55 -14.06,-1.55 a 20.67,20.67 0 0 0 -8.23,-2.19 c -4.56,-0.18 -14.15,-3 -14.34,-3.93 -0.19,-0.93 2.38,-14.34 1.28,-15.34 0,0 12.79,0.52 14.07,1.44 1.28,0.92 3.11,0.27 4.48,0 1.37,-0.27 5.57,-3.91 13.88,-0.71 0,0 2.83,0.27 3.93,-0.46 a 3.93,3.93 0 0 1 2.86,-0.18 7.85,7.85 0 0 0 2,-1 c 0.27,-0.36 2.47,0 2.47,0 a 1,1 0 0 0 1.37,-0.64 6,6 0 0 1 1.28,-2 c 0,0 2.46,-13.88 7.12,-19.09 a 3,3 0 0 0 1,-2.65 c -0.38,-1.48 7.57,-22.31 18.53,-19.38 z"
     id="path172" />
  <path
     style="fill:#3f3d56"
     inkscape:connector-curvature="0"
     d="m 355.52,300.47 c 0,0 8.5,-2.46 6.4,21.65 a 67.39,67.39 0 0 1 -17.81,39.37 c 0,0 -18.09,7.95 -26.22,6.67 -8.13,-1.28 -14.07,-1.58 -14.07,-1.58 a 20.59,20.59 0 0 0 -8.22,-2.19 c -4.57,-0.19 -14.16,-3 -14.34,-3.93 -0.18,-0.93 2.37,-14.34 1.28,-15.35 0,0 12.79,0.53 14.07,1.45 1.28,0.92 3.1,0.26 4.47,0 1.37,-0.26 5.57,-3.91 13.89,-0.72 0,0 2.83,0.28 3.92,-0.45 a 4,4 0 0 1 2.86,-0.19 8.31,8.31 0 0 0 2,-1 c 0.27,-0.37 2.46,0 2.46,0 a 1,1 0 0 0 1.37,-0.64 6,6 0 0 1 1.28,-2 c 0,0 2.47,-13.88 7.13,-19.09 a 3,3 0 0 0 1,-2.65 c -0.37,-1.44 7.57,-22.24 18.53,-19.35 z"
     id="path174" />
  <path
     style="opacity:0.1"
     inkscape:connector-curvature="0"
     d="m 289.55,391.1 12.06,14.6 0.08,-0.08 c 0.09,-0.28 1.28,-3.38 1,-3.57 -0.28,-0.19 -2.37,-4.75 -6.57,-6.67 a 12.46,12.46 0 0 1 -5.17,-4.7 z"
     id="path176" />
  <path
     style="opacity:0.1"
     inkscape:connector-curvature="0"
     d="m 289.71,416.37 1.32,0.75 c 0,0 3.06,-2.45 6.11,-4.92 3.05,-2.47 6,-4.89 6,-5 0,-0.11 1.28,-3.38 1,-3.56 -0.28,-0.18 -0.77,-1.36 -1.93,-2.83 -8.18,-2.29 -3,3.39 -2.28,3.65 0,0 -9.95,-2.29 -10.5,8.56 a 13.42,13.42 0 0 0 0.28,3.35 z"
     id="path178" />
  <path
     style="fill:#3f3d56"
     inkscape:connector-curvature="0"
     d="m 299.8,420.96 1.74,1 17.63,0.45 a 35.31,35.31 0 0 0 6.24,3 5.86,5.86 0 0 0 0.88,0.19 39,39 0 0 0 4.92,0.09 c 1.35,0 2.39,-0.09 2.39,-0.09 0,0 -0.83,-22.23 -1.46,-24.57 -0.3,-1.12 -1.78,-0.88 -3.24,-0.32 a 22.09,22.09 0 0 0 -3.16,1.6 c 0,0 -7.48,0.73 -8.67,1.37 -1.19,0.64 -4.57,-0.37 -6.67,0 -2.1,0.37 -5.85,-2.47 -5.85,-2.47 -10.23,-3.38 -4.47,2.92 -3.74,3.2 0,0 -10,-2.29 -10.51,8.56 -0.51,10.85 9.5,7.99 9.5,7.99 z"
     id="path180" />
  <path
     style="fill:#565387"
     inkscape:connector-curvature="0"
     d="m 325.29,412.38 c 0.19,4.6 3.78,10.31 5.92,13.33 1.35,0 2.39,-0.09 2.39,-0.09 0,0 -0.83,-22.23 -1.46,-24.57 -0.3,-1.12 -1.78,-0.88 -3.24,-0.32 -1.77,3.32 -3.77,7.93 -3.61,11.65 z"
     id="path182" />
  <path
     style="opacity:0.1"
     inkscape:connector-curvature="0"
     d="m 325.29,412.38 c 0.19,4.6 3.78,10.31 5.92,13.33 1.35,0 2.39,-0.09 2.39,-0.09 0,0 -0.83,-22.23 -1.46,-24.57 -0.3,-1.12 -1.78,-0.88 -3.24,-0.32 -1.77,3.32 -3.77,7.93 -3.61,11.65 z"
     id="path184" />
  <path
     style="opacity:0.05"
     inkscape:connector-curvature="0"
     d="m 322.27,412.99 c 1.22,4.44 1.2,9.42 3.14,12.44 a 5.86,5.86 0 0 0 0.88,0.19 39,39 0 0 0 4.92,0.09 c 1.35,0 2.39,-0.09 2.39,-0.09 0,0 -0.83,-22.23 -1.46,-24.57 -0.3,-1.12 -1.78,-0.88 -3.24,-0.32 a 22.09,22.09 0 0 0 -3.16,1.6 c 0,0 -5.02,4.97 -3.47,10.66 z"
     id="path186" />
  <path
     style="opacity:0.1"
     inkscape:connector-curvature="0"
     d="m 261.45,367.92 c 0,0 8.76,2.84 16.18,12.94 z"
     id="path188" />
  <g
     style="opacity:0.1"
     id="g194">
    <path
       inkscape:connector-curvature="0"
       d="m 343.7,345.72 c 0,0.07 0,0.13 -0.05,0.2 a 5.51,5.51 0 0 1 -0.31,0.76 7,7 0 0 1 0.36,-0.96 z"
       transform="translate(-11.09,-87.42)"
       id="path190" />
    <path
       inkscape:connector-curvature="0"
       d="m 294.16,341.29 a 7.81,7.81 0 0 1 0.68,-1.84 c 0,0.15 -0.1,0.31 -0.14,0.47 a 13.28,13.28 0 0 0 0.41,6.06 4.24,4.24 0 0 0 1.47,2.71 c 1.36,0.87 3.47,0.11 4.58,1.28 0.7,0.75 0.74,2.08 1.66,2.54 a 1.84,1.84 0 0 0 1.09,0.12 c 2.43,-0.34 3.83,-3.08 6.17,-3.84 a 6.14,6.14 0 0 1 4.08,0.36 3,3 0 0 1 1.36,0.87 c 0.78,1 0.23,2.49 0.59,3.71 0.5,1.7 2.53,2.37 4.28,2.59 1.75,0.22 3.73,0.35 4.9,1.68 a 4.41,4.41 0 0 1 0.87,3.53 2.77,2.77 0 0 0 0,1.31 c 0.48,1.37 2.85,1.16 3.47,0.08 0.46,-0.79 0.32,-1.44 1.39,-1.66 a 4.65,4.65 0 0 1 2.23,0.39 16.65,16.65 0 0 0 5.9,0.89 7.91,7.91 0 0 0 4.63,-1.41 5.18,5.18 0 0 0 1.42,-1.73 5.76,5.76 0 0 1 -2,3.1 7.91,7.91 0 0 1 -4.63,1.41 16.65,16.65 0 0 1 -5.9,-0.89 4.65,4.65 0 0 0 -2.23,-0.39 c -1.07,0.22 -0.93,0.87 -1.38,1.66 -0.63,1.08 -3,1.29 -3.48,-0.08 a 2.9,2.9 0 0 1 0,-1.31 4.41,4.41 0 0 0 -0.87,-3.53 c -1.17,-1.33 -3.14,-1.45 -4.9,-1.68 -1.76,-0.23 -3.78,-0.89 -4.28,-2.59 -0.36,-1.22 0.19,-2.71 -0.59,-3.71 a 3,3 0 0 0 -1.35,-0.87 6.23,6.23 0 0 0 -4.09,-0.36 c -2.33,0.76 -3.74,3.5 -6.17,3.84 a 1.84,1.84 0 0 1 -1.09,-0.12 c -0.92,-0.46 -1,-1.79 -1.66,-2.54 -1.11,-1.17 -3.21,-0.41 -4.57,-1.28 a 4.21,4.21 0 0 1 -1.48,-2.71 13.14,13.14 0 0 1 -0.37,-6.06 z"
       transform="translate(-11.09,-87.42)"
       id="path192" />
  </g>
  <path
     style="opacity:0.1"
     inkscape:connector-curvature="0"
     d="m 334.03,326.99 c -1.68,2.26 -3.59,4.35 -5.07,6.73 a 12.81,12.81 0 0 0 -2.22,8 c 1.53,-1.57 2.24,-3.75 3.2,-5.72 1.64,-3.34 4.08,-6.17 6.15,-9.23 0.39,-0.59 2.91,-4 1.64,-4.14 -1.06,-0.15 -3.13,3.59 -3.7,4.36 z"
     id="path196" />
  <path
     style="fill:#a1616a"
     inkscape:connector-curvature="0"
     d="m 343.03,540.96 c 1.21,3.88 2.43,7.77 3.94,11.54 a 98.15,98.15 0 0 0 10.21,18.61 135.06,135.06 0 0 0 8.44,11.06 c 3.76,4.43 8,8.89 9.28,14.55 0.77,3.27 0.51,6.68 0.83,10 0.32,3.32 1.41,6.88 4.12,8.88 1.93,1.43 4.4,1.86 6.77,2.23 1.7,0.27 3.82,0.36 4.7,-1.11 a 4.27,4.27 0 0 0 0.47,-1.94 l 0.41,-4.89 c 0.08,-1.06 0.46,-2.41 1.52,-2.46 1.06,-0.05 1.59,1.36 2.49,2 1.2,0.84 3,0 3.66,-1.27 a 6.17,6.17 0 0 0 0.1,-4.3 20.37,20.37 0 0 0 -10.47,-13 30,30 0 0 1 -5.1,-2.65 17.43,17.43 0 0 1 -4,-5.06 c -9.28,-15.28 -18.61,-30.64 -25.16,-47.27 a 35,35 0 0 1 -2.59,-9.32 c -0.32,-3.27 0.19,-6.56 0.4,-9.84 a 56,56 0 0 0 -1.62,-17.53 14,14 0 0 0 -1.67,-4.26 c -2.7,-4.09 -9,-4.7 -13,-1.88 a 13.4,13.4 0 0 0 -5.18,9.47 c -0.29,3.32 1.62,6.76 2.59,9.85 q 4.41,14.31 8.86,28.59 z"
     id="path198" />
  <path
     style="opacity:0.05"
     inkscape:connector-curvature="0"
     d="m 343.03,540.96 c 1.21,3.88 2.43,7.77 3.94,11.54 a 98.15,98.15 0 0 0 10.21,18.61 135.06,135.06 0 0 0 8.44,11.06 c 3.76,4.43 8,8.89 9.28,14.55 0.77,3.27 0.51,6.68 0.83,10 0.32,3.32 1.41,6.88 4.12,8.88 1.93,1.43 4.4,1.86 6.77,2.23 1.7,0.27 3.82,0.36 4.7,-1.11 a 4.27,4.27 0 0 0 0.47,-1.94 l 0.41,-4.89 c 0.08,-1.06 0.46,-2.41 1.52,-2.46 1.06,-0.05 1.59,1.36 2.49,2 1.2,0.84 3,0 3.66,-1.27 a 6.17,6.17 0 0 0 0.1,-4.3 20.37,20.37 0 0 0 -10.47,-13 30,30 0 0 1 -5.1,-2.65 17.43,17.43 0 0 1 -4,-5.06 c -9.28,-15.28 -18.61,-30.64 -25.16,-47.27 a 35,35 0 0 1 -2.59,-9.32 c -0.32,-3.27 0.19,-6.56 0.4,-9.84 a 56,56 0 0 0 -1.62,-17.53 14,14 0 0 0 -1.67,-4.26 c -2.7,-4.09 -9,-4.7 -13,-1.88 a 13.4,13.4 0 0 0 -5.18,9.47 c -0.29,3.32 1.62,6.76 2.59,9.85 q 4.41,14.31 8.86,28.59 z"
     id="path200" />
  <path
     style="fill:#514e7f"
     inkscape:connector-curvature="0"
     d="m 284.73,704.34 a 13.33,13.33 0 0 0 5.64,0.68 c 0.14,-1.56 2.24,-1.91 3.8,-1.83 a 4.34,4.34 0 0 1 2.17,0.5 c 0.39,0.25 0.69,0.61 1.07,0.87 a 4.63,4.63 0 0 0 2.21,0.57 l 8.12,0.68 c 3.62,0.31 7.39,0.59 10.78,-0.7 a 3.72,3.72 0 0 0 1.73,-1.16 c 0.92,-1.32 0,-3.21 -1.27,-4.17 -1.27,-0.96 -2.91,-1.39 -4.19,-2.37 -2.82,-2.15 -3.21,-6.17 -4.7,-9.39 a 27.71,27.71 0 0 0 -3.89,-5.63 21.61,21.61 0 0 0 -3.83,-3.93 c -3.26,-2.35 -7,-2.3 -10.83,-2.64 -2.7,-0.24 -5.24,-0.4 -7.18,2 -2.4,3 -1.44,9 -1.29,12.5 a 90.47,90.47 0 0 0 1.66,14.02 z"
     id="path202" />
  <path
     style="opacity:0.05"
     inkscape:connector-curvature="0"
     d="m 284.73,704.34 a 13.33,13.33 0 0 0 5.64,0.68 c 0.14,-1.56 2.24,-1.91 3.8,-1.83 a 4.34,4.34 0 0 1 2.17,0.5 c 0.39,0.25 0.69,0.61 1.07,0.87 a 4.63,4.63 0 0 0 2.21,0.57 l 8.12,0.68 c 3.62,0.31 7.39,0.59 10.78,-0.7 a 3.72,3.72 0 0 0 1.73,-1.16 c 0.92,-1.32 0,-3.21 -1.27,-4.17 -1.27,-0.96 -2.91,-1.39 -4.19,-2.37 -2.82,-2.15 -3.21,-6.17 -4.7,-9.39 a 27.71,27.71 0 0 0 -3.89,-5.63 21.61,21.61 0 0 0 -3.83,-3.93 c -3.26,-2.35 -7,-2.3 -10.83,-2.64 -2.7,-0.24 -5.24,-0.4 -7.18,2 -2.4,3 -1.44,9 -1.29,12.5 a 90.47,90.47 0 0 0 1.66,14.02 z"
     id="path204" />
  <path
     style="fill:#464353"
     inkscape:connector-curvature="0"
     d="m 288.01,546.39 c -2.48,0.8 -3.56,3.89 -3.1,6.46 0.46,2.57 2,4.79 3.27,7.07 3.62,6.47 5.18,13.87 8.22,20.62 2.27,5 5.34,9.7 7.58,14.76 2.24,5.06 3.63,10.77 2.27,16.14 -0.66,2.61 -1.94,5 -2.79,7.57 a 42,42 0 0 0 -1.64,8.55 162.39,162.39 0 0 0 -0.59,29.66 8.86,8.86 0 0 0 0.74,3.5 c 0.51,1 1.39,2 1,3 -0.17,0.41 -0.54,0.71 -0.72,1.11 -0.52,1.12 0.52,2.31 1.47,3.11 a 2.59,2.59 0 0 1 -1.59,1.23 3.76,3.76 0 0 1 1.6,4.19 c -0.84,0.13 -0.89,1.42 -0.36,2.1 0.53,0.68 1.37,1.1 1.75,1.87 a 2.61,2.61 0 0 1 -1.44,3.28 6.85,6.85 0 0 1 -3.92,0.3 43,43 0 0 1 -6.55,-1.44 4.74,4.74 0 0 1 -3.82,-4.9 72.81,72.81 0 0 1 -0.45,-12.27 c 0.35,-19.84 0,-39.7 -0.86,-59.53 -0.35,-8 -2.75,-15.75 -5.84,-23.11 a 121.29,121.29 0 0 0 -5.69,-11 c -4.46,-8.16 -8.4,-17.2 -7.38,-26.45 0.11,-1 0.47,-2.19 1.46,-2.35 a 2.12,2.12 0 0 1 1.13,0.19 50.81,50.81 0 0 1 5.95,3.28 22.46,22.46 0 0 0 10.3,3.06 z"
     id="path206" />
  <path
     style="opacity:0.05"
     inkscape:connector-curvature="0"
     d="m 288.01,546.39 c -2.48,0.8 -3.56,3.89 -3.1,6.46 0.46,2.57 2,4.79 3.27,7.07 3.62,6.47 5.18,13.87 8.22,20.62 2.27,5 5.34,9.7 7.58,14.76 2.24,5.06 3.63,10.77 2.27,16.14 -0.66,2.61 -1.94,5 -2.79,7.57 a 42,42 0 0 0 -1.64,8.55 162.39,162.39 0 0 0 -0.59,29.66 8.86,8.86 0 0 0 0.74,3.5 c 0.51,1 1.39,2 1,3 -0.17,0.41 -0.54,0.71 -0.72,1.11 -0.52,1.12 0.52,2.31 1.47,3.11 a 2.59,2.59 0 0 1 -1.59,1.23 3.76,3.76 0 0 1 1.6,4.19 c -0.84,0.13 -0.89,1.42 -0.36,2.1 0.53,0.68 1.37,1.1 1.75,1.87 a 2.61,2.61 0 0 1 -1.44,3.28 6.85,6.85 0 0 1 -3.92,0.3 43,43 0 0 1 -6.55,-1.44 4.74,4.74 0 0 1 -3.82,-4.9 72.81,72.81 0 0 1 -0.45,-12.27 c 0.35,-19.84 0,-39.7 -0.86,-59.53 -0.35,-8 -2.75,-15.75 -5.84,-23.11 a 121.29,121.29 0 0 0 -5.69,-11 c -4.46,-8.16 -8.4,-17.2 -7.38,-26.45 0.11,-1 0.47,-2.19 1.46,-2.35 a 2.12,2.12 0 0 1 1.13,0.19 50.81,50.81 0 0 1 5.95,3.28 22.46,22.46 0 0 0 10.3,3.06 z"
     id="path208" />
  <path
     style="fill:#464353"
     inkscape:connector-curvature="0"
     d="m 254.48,522.27 a 8.62,8.62 0 0 0 -4.32,-1.36 c -1.78,0.09 -3.3,1.26 -4.69,2.38 a 48,48 0 0 0 -4.68,4.1 24.94,24.94 0 0 0 -5.56,24.68 c 1.47,4.41 4.16,8.3 6.82,12.11 l 5.4,7.76 c 8.24,11.83 16.48,23.66 25.11,35.21 a 1.34,1.34 0 0 0 0.94,1.27 c 0.31,0.08 0.7,0.07 0.89,0.33 a 0.94,0.94 0 0 1 0.11,0.53 7.65,7.65 0 0 1 -0.48,2.5 1.19,1.19 0 0 0 -0.1,0.86 c 0.28,0.65 1.46,0.28 1.84,0.89 0.25,0.4 -0.06,0.92 -0.39,1.26 -0.33,0.34 -0.74,0.72 -0.68,1.19 0.06,0.47 0.88,1 0.85,1.58 0,0.34 -0.3,0.6 -0.51,0.87 a 2.23,2.23 0 0 0 0.27,2.84 c 0.57,5.64 -2.5,11 -3.11,16.62 -1,8.88 3.05,17.55 3.54,26.46 a 6.85,6.85 0 0 0 0.56,2.92 c 0.83,1.54 3,2.47 2.89,4.22 a 16.9,16.9 0 0 1 -0.61,2.12 c -0.17,1 0.31,2 0.33,3 0.02,1 -0.87,2.23 -1.81,1.83 q 1.06,3.54 1.89,7.14 l 18.9,1.56 a 16.77,16.77 0 0 0 -0.17,-5.1 c -0.39,-1.83 -1.21,-3.53 -1.64,-5.34 a 6.32,6.32 0 0 1 0.74,-5.35 2.09,2.09 0 0 1 -2.08,-1.71 8.31,8.31 0 0 1 0.05,-2.94 c 0.5,-4.93 -1.57,-9.79 -1.51,-14.74 0.06,-3.9 1.43,-7.65 2.12,-11.48 1.48,-8.2 -0.06,-17.09 3.59,-24.58 2.21,-4.51 5.27,-9.51 2.79,-13.88 -1.22,-2.16 -3.38,-3.64 -4.79,-5.68 a 23.11,23.11 0 0 1 -2.56,-6.19 c -2.91,-9 -7.62,-17.36 -11.75,-25.92 a 27,27 0 0 1 -2.53,-6.81 35.7,35.7 0 0 1 -0.32,-6.29 92.72,92.72 0 0 0 -0.69,-11.29 10.74,10.74 0 0 0 -1.37,-4.67 10.45,10.45 0 0 0 -3,-2.69 c -6.2,-4.25 -13.58,-6.68 -20.28,-10.21 z"
     id="path210" />
  <path
     style="fill:#514e7f"
     inkscape:connector-curvature="0"
     d="m 277.13,711.27 a 13.55,13.55 0 0 0 5.65,0.67 c 0.14,-1.56 2.23,-1.91 3.79,-1.83 a 4.34,4.34 0 0 1 2.17,0.5 c 0.39,0.25 0.69,0.62 1.08,0.87 a 4.52,4.52 0 0 0 2.21,0.57 l 8.11,0.68 c 3.63,0.31 7.39,0.6 10.79,-0.7 a 3.62,3.62 0 0 0 1.72,-1.16 c 0.92,-1.32 0,-3.2 -1.27,-4.16 -1.27,-0.96 -2.91,-1.4 -4.18,-2.38 -2.83,-2.15 -3.21,-6.16 -4.71,-9.38 a 27.07,27.07 0 0 0 -3.88,-5.64 21.6,21.6 0 0 0 -3.84,-3.92 c -3.25,-2.36 -7,-2.31 -10.82,-2.65 -2.71,-0.24 -5.25,-0.39 -7.18,2 -2.4,3 -1.44,9 -1.3,12.51 a 90.61,90.61 0 0 0 1.66,14.02 z"
     id="path212" />
  <circle
     style="fill:#a1616a"
     cx="360.89999"
     cy="470.82001"
     r="18.719999"
     id="circle214" />
  <path
     style="fill:#a1616a"
     inkscape:connector-curvature="0"
     d="m 343.24,476.38 c -2.68,2.31 -6.53,2.48 -10.05,2.84 a 63.12,63.12 0 0 0 -21.63,6.26 7.8,7.8 0 0 0 -2.5,1.72 7.06,7.06 0 0 0 -1.27,2.68 17.51,17.51 0 0 0 -0.71,6.51 18.55,18.55 0 0 0 1.81,6.12 33,33 0 0 0 11.6,13.23 8.5,8.5 0 0 0 2.94,1.41 c 2.46,0.51 4.84,-0.91 7.27,-1.55 a 11.88,11.88 0 0 1 6.71,0.21 c 2,0.68 4.19,1.92 6.17,1.09 a 6.33,6.33 0 0 0 2.79,-3.18 108.21,108.21 0 0 0 5.11,-11.14 42.85,42.85 0 0 1 1.85,-4.36 c 2.17,-4.13 5.92,-7.32 7.79,-11.61 a 2.55,2.55 0 0 0 0.18,-2.18 3,3 0 0 0 -1.38,-1.05 32.81,32.81 0 0 1 -7.48,-5.87 c -1.23,-1.18 -3.49,-4.37 -5.26,-4.65 -1.99,-0.34 -2.59,2.36 -3.94,3.52 z"
     id="path216" />
  <path
     style="fill:#6c63ff"
     inkscape:connector-curvature="0"
     d="m 343.68,514.42 c -2.17,1 -4.73,0.57 -7.08,0.08 -6.06,-1.27 -12.19,-2.55 -17.8,-5.17 a 9.64,9.64 0 0 1 -4.37,-3.36 11,11 0 0 1 -1.22,-4.19 l -1,-7 c -0.36,-2.43 0.26,-4.68 0.32,-7.14 a 2.07,2.07 0 0 0 -0.41,-1.55 1.69,1.69 0 0 0 -1.23,-0.39 c -2.81,0.05 -4.51,3 -6.48,5 a 12,12 0 0 1 -4,2.68 c -1.8,0.74 -4,1.26 -4.75,3.06 -0.3,0.75 -0.26,1.6 -0.58,2.35 -1.26,3 -6.63,2 -8,5 -0.39,0.84 -0.36,1.89 -1,2.55 -0.64,0.66 -1.84,0.65 -2.83,0.81 -3.91,0.64 -5.8,5.15 -9.14,7.28 -2.81,1.8 -6.43,1.76 -9.46,3.16 -1.68,0.78 -3.17,2 -4.95,2.51 -1.78,0.51 -3.79,0.24 -5.7,0.29 a 1.49,1.49 0 0 0 -1.13,0.37 1.51,1.51 0 0 0 -0.19,1.24 34.46,34.46 0 0 0 21.29,26.68 7.12,7.12 0 0 1 1.82,0.88 c 1.7,1.27 2,4 3.93,4.9 a 4,4 0 0 0 4.09,-0.88 36.68,36.68 0 0 0 3,-3.26 11.75,11.75 0 0 1 6.59,-3.47 c 2.32,-0.37 4.91,-0.1 6.79,-1.53 a 21.05,21.05 0 0 0 2.14,-2.28 13.44,13.44 0 0 1 4.85,-2.9 49.58,49.58 0 0 1 15.43,-3.39 c 4.93,-0.27 10,0.18 14.66,-1.42 a 8.84,8.84 0 0 0 3.27,-1.85 9.83,9.83 0 0 0 2.18,-3.79 29,29 0 0 0 0.96,-15.27 z"
     id="path218" />
  <path
     style="fill:#6c63ff"
     inkscape:connector-curvature="0"
     d="m 319.55,486.83 c 1.38,-0.13 2.77,0 4.16,0 1.63,0 3.24,-0.4 4.87,-0.41 a 12.11,12.11 0 0 1 11.42,8.69 2.25,2.25 0 0 1 0.07,1.23 0.87,0.87 0 0 1 -0.94,0.64 20.73,20.73 0 0 0 -2.11,-4.21 11.83,11.83 0 0 0 -6.28,-4.38 16.26,16.26 0 0 0 -7.72,-0.28 c -1.07,0.2 -2.11,0.48 -3.15,0.77 l -5,1.38 c -0.92,0.25 -1.85,0.5 -2.74,0.83 -0.69,0.26 -1.87,1.21 -2.55,1.25 -0.92,0 -0.18,-0.8 0.23,-1.34 a 6.65,6.65 0 0 1 3.27,-2.38 28.32,28.32 0 0 1 6.47,-1.79 z"
     id="path220" />
  <path
     style="display:inline;fill:#a1616a"
     inkscape:connector-curvature="0"
     d="m 332.17,543.06 c 1.21,3.88 2.42,7.77 3.94,11.54 a 97.6,97.6 0 0 0 10.21,18.61 135.06,135.06 0 0 0 8.44,11.06 c 3.75,4.43 7.94,8.89 9.28,14.54 0.77,3.28 0.51,6.69 0.83,10 0.32,3.31 1.41,6.88 4.11,8.88 1.94,1.42 4.41,1.85 6.78,2.23 1.69,0.27 3.81,0.36 4.7,-1.11 a 4.44,4.44 0 0 0 0.47,-1.94 l 0.4,-4.89 c 0.09,-1.06 0.47,-2.41 1.52,-2.46 1.05,-0.05 1.6,1.36 2.5,2 1.2,0.84 3,0 3.66,-1.27 a 6.22,6.22 0 0 0 0.1,-4.3 20.43,20.43 0 0 0 -10.47,-13 30.52,30.52 0 0 1 -5.11,-2.65 17.31,17.31 0 0 1 -4,-5.07 c -9.29,-15.27 -18.62,-30.63 -25.16,-47.27 a 35.26,35.26 0 0 1 -2.6,-9.31 c -0.31,-3.27 0.19,-6.56 0.41,-9.84 a 56,56 0 0 0 -1.62,-17.53 13.79,13.79 0 0 0 -1.68,-4.26 c -2.69,-4.1 -9,-4.7 -13,-1.88 a 13.41,13.41 0 0 0 -5.19,9.47 c -0.29,3.32 1.63,6.76 2.59,9.85 q 4.43,14.32 8.89,28.6 z"
     id="path222" />
  <path
     style="display:inline;fill:#464353"
     inkscape:connector-curvature="0"
     d="m 388.13,457.58 c 0.15,-1.56 -1.25,-3 -2.84,-4 a 37.6,37.6 0 0 1 -4.81,-2.94 c -1.42,-1.23 -2.2,-2.83 -3.62,-4.06 a 16.09,16.09 0 0 0 -5.4,-2.69 41.12,41.12 0 0 0 -12.92,-2.31 c -4.45,0 -9,1 -12.35,3.27 a 7.31,7.31 0 0 0 -2.1,2 8.58,8.58 0 0 0 -1,3.1 61.18,61.18 0 0 1 -3.23,9.81 c -1.39,3.53 -2.87,7.19 -6.14,9.92 -3.5,2.91 -8.85,4.59 -11.16,8.11 a 2.6,2.6 0 0 0 -0.51,2.27 c 0.33,0.89 1.39,1.5 2.37,2.06 5.68,3.26 10.58,7.49 13.1,12.54 2.52,5.05 2.45,11 -1.14,15.65 -1.32,1.72 -3.14,3.76 -1.85,5.49 2,2.63 8.69,1.12 10.25,3.9 0.49,0.89 0.2,1.9 0.2,2.87 0,2.92 2.81,5.51 6.22,6.86 3.41,1.35 7.36,1.67 11.2,1.84 a 9.78,9.78 0 0 0 0.28,-7.25 2.92,2.92 0 0 1 -0.29,-1.65 4,4 0 0 1 1.29,-1.58 c 4.1,-3.88 3.23,-9.58 0.77,-14.19 -2.46,-4.61 -6.3,-8.82 -7.73,-13.67 -0.71,-2.41 -0.71,-5.12 1.2,-7.12 a 24.05,24.05 0 0 1 3.53,-2.57 13.34,13.34 0 0 0 4.94,-6.2 c 1.15,-3.19 1,-7 4.34,-9.15 3.21,-2 7.72,-1.42 11.27,-2.79 2.73,-1.08 5.91,-5.23 6.13,-7.52 z"
     id="path224" />
  <g
     id="g948"
     transform="translate(42.31028,-197.07683)"
     style="display:inline">
    <g
       aria-label="0"
       transform="matrix(1.9984727,0,0,2.1704446,-381.18251,-481.53308)"
       style="font-style:normal;font-weight:normal;font-size:40px;line-height:1.25;font-family:sans-serif;letter-spacing:0px;word-spacing:0px;display:inline;fill:url(#linearGradient4807);fill-opacity:1;stroke:none"
       id="flowRoot3938-5">
      <path
         d="m 465.46875,565.04725 q -6,0 -9.09375,7.6875 -3.09375,7.6875 -3.09375,22.21875 0,11.0625 1.59375,17.8125 2.90625,12.09375 10.59375,12.09375 6,0 9.09375,-7.40625 3.09375,-7.5 3.09375,-22.5 0,-10.5 -1.59375,-17.34375 -2.90625,-12.5625 -10.59375,-12.5625 z m 0,-2.4375 q 11.4375,0 17.0625,12 4.125,8.8125 4.125,20.34375 0,11.71875 -4.125,20.4375 -5.625,11.90625 -17.0625,11.90625 -11.4375,0 -17.0625,-11.90625 -4.125,-8.71875 -4.125,-20.4375 0,-11.4375 4.125,-20.25 5.625,-12.09375 17.0625,-12.09375 z"
         style="font-style:normal;font-variant:normal;font-weight:normal;font-stretch:normal;font-size:96px;font-family:Rekha;-inkscape-font-specification:Rekha;fill:url(#linearGradient5122);fill-opacity:1"
         id="path956"
         inkscape:connector-curvature="0" />
    </g>
    <g
       id="g5248"
       style="display:inline"
       transform="translate(-30.062568,193.73655)">
      <g
         id="flowRoot3938"
         style="font-style:normal;font-weight:normal;font-size:40px;line-height:1.25;font-family:sans-serif;letter-spacing:0px;word-spacing:0px;display:inline;fill:#000000;fill-opacity:1;stroke:none"
         transform="matrix(1.9984727,0,0,2.1704446,-355.08514,-675.76168)"
         aria-label="0">
        <path
           inkscape:connector-curvature="0"
           id="path950"
           style="font-style:normal;font-variant:normal;font-weight:normal;font-stretch:normal;font-size:96px;font-family:Rekha;-inkscape-font-specification:Rekha;fill:#6c63ff;fill-opacity:1"
           d="m 465.46875,565.04725 q -6,0 -9.09375,7.6875 -3.09375,7.6875 -3.09375,22.21875 0,11.0625 1.59375,17.8125 2.90625,12.09375 10.59375,12.09375 6,0 9.09375,-7.40625 3.09375,-7.5 3.09375,-22.5 0,-10.5 -1.59375,-17.34375 -2.90625,-12.5625 -10.59375,-12.5625 z m 0,-2.4375 q 11.4375,0 17.0625,12 4.125,8.8125 4.125,20.34375 0,11.71875 -4.125,20.4375 -5.625,11.90625 -17.0625,11.90625 -11.4375,0 -17.0625,-11.90625 -4.125,-8.71875 -4.125,-20.4375 0,-11.4375 4.125,-20.25 5.625,-12.09375 17.0625,-12.09375 z" />
      </g>
    </g>
  </g>
</svg>
